<svg xmlns="http://www.w3.org/2000/svg" xmlns:xlink="http://www.w3.org/1999/xlink" width="100" height="118" viewBox="0 0 100 118">
  <defs>
    <clipPath id="clip-Artboard_9">
      <rect width="100" height="118"/>
    </clipPath>
  </defs>
  <g id="Artboard_9" data-name="Artboard – 9" clip-path="url(#clip-Artboard_9)">
    <g id="business-and-finance" transform="translate(-22.465 8)" opacity="0.1">
      <g id="Group_362" data-name="Group 362" transform="translate(38.144 17.571)">
        <g id="Group_361" data-name="Group 361" transform="translate(0)">
          <path id="Path_482" data-name="Path 482" d="M105.762,82.068h-7.83A2.237,2.237,0,0,0,95.7,84.305v12.3a2.237,2.237,0,0,0,2.237,2.237h7.83A2.237,2.237,0,0,0,108,96.609v-12.3A2.237,2.237,0,0,0,105.762,82.068Zm-2.237,12.3h-3.356v-7.83h3.356Z" transform="translate(-95.695 -82.068)" fill="#52b487"/>
        </g>
      </g>
      <g id="Group_364" data-name="Group 364" transform="translate(53.804 17.571)">
        <g id="Group_363" data-name="Group 363">
          <path id="Path_483" data-name="Path 483" d="M178.905,82.068h-7.83a2.237,2.237,0,0,0-2.237,2.237v12.3a2.237,2.237,0,0,0,2.237,2.237h7.83a2.237,2.237,0,0,0,2.237-2.237v-12.3A2.237,2.237,0,0,0,178.905,82.068Zm-2.237,12.3h-3.356v-7.83h3.356Z" transform="translate(-168.838 -82.068)" fill="#52b487"/>
        </g>
      </g>
      <g id="Group_366" data-name="Group 366" transform="translate(38.144 39.495)">
        <g id="Group_365" data-name="Group 365" transform="translate(0)">
          <path id="Path_484" data-name="Path 484" d="M105.762,184.467h-7.83A2.237,2.237,0,0,0,95.7,186.7v12.3a2.237,2.237,0,0,0,2.237,2.237h7.83A2.237,2.237,0,0,0,108,199.008V186.7A2.238,2.238,0,0,0,105.762,184.467Zm-2.237,12.3h-3.356v-7.83h3.356Z" transform="translate(-95.695 -184.467)" fill="#52b487"/>
        </g>
      </g>
      <g id="Group_368" data-name="Group 368" transform="translate(53.804 39.495)">
        <g id="Group_367" data-name="Group 367">
          <path id="Path_485" data-name="Path 485" d="M178.905,184.467h-7.83a2.237,2.237,0,0,0-2.237,2.237v12.3a2.237,2.237,0,0,0,2.237,2.237h7.83a2.237,2.237,0,0,0,2.237-2.237V186.7A2.237,2.237,0,0,0,178.905,184.467Zm-2.237,12.3h-3.356v-7.83h3.356Z" transform="translate(-168.838 -184.467)" fill="#52b487"/>
        </g>
      </g>
      <g id="Group_370" data-name="Group 370" transform="translate(38.144 61.419)">
        <g id="Group_369" data-name="Group 369" transform="translate(0)">
          <path id="Path_486" data-name="Path 486" d="M105.762,286.867h-7.83A2.237,2.237,0,0,0,95.7,289.1v12.3a2.237,2.237,0,0,0,2.237,2.237h7.83A2.237,2.237,0,0,0,108,301.408V289.1A2.237,2.237,0,0,0,105.762,286.867Zm-2.237,12.3h-3.356v-7.83h3.356Z" transform="translate(-95.695 -286.867)" fill="#52b487"/>
        </g>
      </g>
      <g id="Group_372" data-name="Group 372" transform="translate(53.804 61.419)">
        <g id="Group_371" data-name="Group 371">
          <path id="Path_487" data-name="Path 487" d="M178.905,286.867h-7.83a2.237,2.237,0,0,0-2.237,2.237v12.3a2.237,2.237,0,0,0,2.237,2.237h7.83a2.237,2.237,0,0,0,2.237-2.237V289.1A2.237,2.237,0,0,0,178.905,286.867Zm-2.237,12.3h-3.356v-7.83h3.356Z" transform="translate(-168.838 -286.867)" fill="#52b487"/>
        </g>
      </g>
      <g id="Group_374" data-name="Group 374" transform="translate(38.144 83.343)">
        <g id="Group_373" data-name="Group 373" transform="translate(0)">
          <path id="Path_488" data-name="Path 488" d="M105.762,389.267h-7.83A2.237,2.237,0,0,0,95.7,391.5v12.3a2.237,2.237,0,0,0,2.237,2.237h7.83A2.237,2.237,0,0,0,108,403.808V391.5A2.238,2.238,0,0,0,105.762,389.267Zm-2.237,12.3h-3.356v-7.83h3.356Z" transform="translate(-95.695 -389.267)" fill="#52b487"/>
        </g>
      </g>
      <g id="Group_376" data-name="Group 376" transform="translate(53.804 83.343)">
        <g id="Group_375" data-name="Group 375">
          <path id="Path_489" data-name="Path 489" d="M178.905,389.267h-7.83a2.237,2.237,0,0,0-2.237,2.237v12.3a2.237,2.237,0,0,0,2.237,2.237h7.83a2.237,2.237,0,0,0,2.237-2.237V391.5A2.237,2.237,0,0,0,178.905,389.267Zm-2.237,12.3h-3.356v-7.83h3.356Z" transform="translate(-168.838 -389.267)" fill="#52b487"/>
        </g>
      </g>
      <g id="Group_378" data-name="Group 378" transform="translate(101.127 90.455)">
        <g id="Group_377" data-name="Group 377" transform="translate(0)">
          <path id="Path_490" data-name="Path 490" d="M392.147,422.486h-.04a2.237,2.237,0,0,0,0,4.474h.04a2.237,2.237,0,1,0,0-4.474Z" transform="translate(-389.87 -422.486)" fill="#52b487"/>
        </g>
      </g>
      <g id="Group_380" data-name="Group 380" transform="translate(101.127 37.7)">
        <g id="Group_379" data-name="Group 379" transform="translate(0)">
          <path id="Path_491" data-name="Path 491" d="M392.147,176.087h-.04a2.237,2.237,0,0,0,0,4.474h.04a2.237,2.237,0,1,0,0-4.474Z" transform="translate(-389.87 -176.087)" fill="#52b487"/>
        </g>
      </g>
      <g id="Group_382" data-name="Group 382" transform="translate(101.127 48.251)">
        <g id="Group_381" data-name="Group 381" transform="translate(0)">
          <path id="Path_492" data-name="Path 492" d="M392.147,225.367h-.04a2.237,2.237,0,0,0,0,4.474h.04a2.237,2.237,0,1,0,0-4.474Z" transform="translate(-389.87 -225.367)" fill="#52b487"/>
        </g>
      </g>
      <g id="Group_384" data-name="Group 384" transform="translate(101.127 58.802)">
        <g id="Group_383" data-name="Group 383" transform="translate(0)">
          <path id="Path_493" data-name="Path 493" d="M392.147,274.646h-.04a2.237,2.237,0,0,0,0,4.474h.04a2.237,2.237,0,1,0,0-4.474Z" transform="translate(-389.87 -274.646)" fill="#52b487"/>
        </g>
      </g>
      <g id="Group_386" data-name="Group 386" transform="translate(101.127 69.353)">
        <g id="Group_385" data-name="Group 385" transform="translate(0)">
          <path id="Path_494" data-name="Path 494" d="M392.147,323.926h-.04a2.237,2.237,0,0,0,0,4.474h.04a2.237,2.237,0,1,0,0-4.474Z" transform="translate(-389.87 -323.926)" fill="#52b487"/>
        </g>
      </g>
      <g id="Group_388" data-name="Group 388" transform="translate(101.127 79.904)">
        <g id="Group_387" data-name="Group 387" transform="translate(0)">
          <path id="Path_495" data-name="Path 495" d="M392.147,373.206h-.04a2.237,2.237,0,0,0,0,4.474h.04a2.237,2.237,0,1,0,0-4.474Z" transform="translate(-389.87 -373.206)" fill="#52b487"/>
        </g>
      </g>
      <g id="Group_390" data-name="Group 390" transform="translate(22.465 0)">
        <g id="Group_389" data-name="Group 389" transform="translate(0 0)">
          <path id="Path_496" data-name="Path 496" d="M120.228,105.145H114.1V29.323a2.237,2.237,0,0,0-2.237-2.237H74.721V11.857A2.237,2.237,0,0,0,73,9.68L32.282.06a2.237,2.237,0,0,0-2.752,2.177V105.145H24.7a2.237,2.237,0,1,0,0,4.474h95.526a2.237,2.237,0,1,0,0-4.474ZM70.246,29.323v75.823H34V5.064l36.242,8.563Zm39.381,75.823H74.721V94.929H95.675a2.237,2.237,0,0,0,0-4.474H74.721V84.379H95.675a2.237,2.237,0,0,0,0-4.474H74.721V73.827H95.675a2.237,2.237,0,0,0,0-4.474H74.721V63.277H95.675a2.237,2.237,0,0,0,0-4.474H74.721V52.726H95.675a2.237,2.237,0,0,0,0-4.474H74.721V42.175H95.675a2.237,2.237,0,0,0,0-4.474H74.721V31.56h34.906v73.585Z" transform="translate(-22.465 0)" fill="#52b487"/>
        </g>
      </g>
    </g>
  </g>
</svg>
