<svg xmlns="http://www.w3.org/2000/svg" xmlns:xlink="http://www.w3.org/1999/xlink" width="74" height="110" viewBox="0 0 74 110">
  <defs>
    <clipPath id="clip-path">
      <rect id="Rectangle_275" data-name="Rectangle 275" width="73" height="108" transform="translate(3847 -4296.12)" fill="#fff"/>
    </clipPath>
    <clipPath id="clip-Artboard_11">
      <rect width="74" height="110"/>
    </clipPath>
  </defs>
  <g id="Artboard_11" data-name="Artboard – 11" clip-path="url(#clip-Artboard_11)">
    <g id="Mask_Group_8" data-name="Mask Group 8" transform="translate(-3845 4298.12)" clip-path="url(#clip-path)">
      <g id="communication" transform="translate(3849.936 -4290.863)" opacity="0.139">
        <g id="Group_391" data-name="Group 391" transform="translate(0 0)">
          <path id="Path_497" data-name="Path 497" d="M155.414,63.115l29.442-26.991a2.647,2.647,0,0,0,.852-1.883,2.609,2.609,0,0,0-.768-1.914L153.384.77a2.633,2.633,0,0,0-4.492,1.862v54.5L121.743,32.247a2.632,2.632,0,0,0-3.555,3.881L147.63,63.115,118.188,90.1a2.632,2.632,0,0,0,3.555,3.881l27.149-24.888v54.5a2.63,2.63,0,0,0,1.625,2.43,2.573,2.573,0,0,0,1,.2,2.633,2.633,0,0,0,1.862-.773L184.94,93.9a2.631,2.631,0,0,0-.084-3.8ZM154.152,8.98,179.276,34.1,154.152,57.135Zm0,108.271V69.095l25.124,23.031Z" transform="translate(-117.337 -0.001)" fill="#3a83f7"/>
        </g>
      </g>
    </g>
  </g>
</svg>
