<svg xmlns="http://www.w3.org/2000/svg" xmlns:xlink="http://www.w3.org/1999/xlink" width="107" height="98" viewBox="0 0 107 98">
  <defs>
    <clipPath id="clip-Artboard_10">
      <rect width="107" height="98"/>
    </clipPath>
  </defs>
  <g id="Artboard_10" data-name="Artboard – 10" clip-path="url(#clip-Artboard_10)">
    <g id="Group_509" data-name="Group 509" transform="translate(2 2)" opacity="0.1">
      <g id="Group_400" data-name="Group 400">
        <path id="Path_500" data-name="Path 500" d="M101.868,102.433,59.61,25.962a8.974,8.974,0,0,0-7.849-4.628h-.536a8.972,8.972,0,0,0-7.849,4.631L1.119,102.433a8.967,8.967,0,0,0,7.849,13.3H94.018a8.968,8.968,0,0,0,7.849-13.3Zm-7.849,9.014H8.968a4.679,4.679,0,0,1-4.094-6.939L47.131,28.041a4.683,4.683,0,0,1,4.094-2.416h.536a4.685,4.685,0,0,1,4.094,2.414l42.257,76.469a4.678,4.678,0,0,1-4.094,6.939Z" transform="translate(0 -21.334)" fill="#0E8190" stroke="#0E8190" stroke-width="1"/>
        <path id="Path_501" data-name="Path 501" d="M202.853,192.121h-9.705l7.4-18.514a2.144,2.144,0,0,0-1.991-2.942H183.543a2.147,2.147,0,0,0-2.02,1.425L170.8,202.127a2.142,2.142,0,0,0,2.02,2.866h9.705l-7.4,18.514a2.145,2.145,0,0,0,3.621,2.192l25.747-30.038a2.146,2.146,0,0,0-1.63-3.541Zm-18.941,20.946,3.767-9.422a2.144,2.144,0,0,0-1.991-2.942h-9.827l9.194-25.747h10.338l-7.4,18.514a2.144,2.144,0,0,0,1.99,2.942h8.209Z" transform="translate(-136.341 -140.628)" fill="#0E8190" stroke="#0E8190" stroke-width="1"/>
      </g>
    </g>
  </g>
</svg>
