<svg xmlns="http://www.w3.org/2000/svg" xmlns:xlink="http://www.w3.org/1999/xlink" width="100" height="118" viewBox="0 0 100 118">
  <defs>
    <clipPath id="clip-Artboard_8">
      <rect width="100" height="118"/>
    </clipPath>
  </defs>
  <g id="Artboard_8" data-name="Artboard – 8" clip-path="url(#clip-Artboard_8)">
    <g id="professions-and-jobs" transform="translate(-4.9 3.975)" opacity="0.1">
      <path id="Path_532" data-name="Path 532" d="M30,56h7.469v3.734H30Z" transform="translate(19.164 46.804)" fill="#f4a35e"/>
      <path id="Path_533" data-name="Path 533" d="M30,52h7.469v3.734H30Z" transform="translate(19.164 43.336)" fill="#f4a35e"/>
      <path id="Path_534" data-name="Path 534" d="M100.51,83.2,91.548,61.727H87.254l-1.307,2.8L68.956,53.885,72.5,51.271A25.678,25.678,0,0,0,83.333,31.666L83.706,27A18.525,18.525,0,0,0,72.5,8.7L61.86,3.845a22.971,22.971,0,0,0-17.925,0L33.106,8.513a18.794,18.794,0,0,0-11.2,18.3l.373,4.668A26.568,26.568,0,0,0,33.106,51.084L36.654,53.7,17.609,65.648A20.531,20.531,0,0,0,7.9,83.012v30.995H97.523V97.2a12.7,12.7,0,0,0,2.987-14ZM74.184,61.54,63.728,69.382A1.746,1.746,0,0,1,61.3,69.2l-5.228-5.228,2.987-1.494a28.563,28.563,0,0,0,7.655-5.788ZM59.433,72.556,52.9,85.626l-6.535-13.07c.187-.187.56-.373.747-.56L52.9,66.208,58.686,72A2.577,2.577,0,0,0,59.433,72.556ZM32.36,30.546v8.776a25.876,25.876,0,0,0,1.12,7.469,22.691,22.691,0,0,1-7.469-15.311l-.373-4.668A15.133,15.133,0,0,1,34.6,12.061L45.43,7.393a18.874,18.874,0,0,1,14.937,0L71.2,12.061a15.133,15.133,0,0,1,8.962,14.75l-.373,4.668A22.291,22.291,0,0,1,72.316,46.79a24.952,24.952,0,0,0,1.12-7.469V31.853a5.5,5.5,0,0,0-5.6-5.6h-5.6A3.745,3.745,0,0,1,58.5,22.517V15.982L35.72,25.5a5.3,5.3,0,0,0-3.361,5.041Zm3.734,8.776V30.732a1.633,1.633,0,0,1,1.12-1.68L54.765,21.77v.747a7.491,7.491,0,0,0,7.469,7.469h5.6A1.764,1.764,0,0,1,69.7,31.853v7.469A22.506,22.506,0,0,1,57.379,59.3l-3.548,1.867a2.591,2.591,0,0,1-1.68,0L48.6,59.3A22.339,22.339,0,0,1,36.094,39.321Zm2.987,17.551a25.914,25.914,0,0,0,7.655,5.788l2.987,1.494L44.5,69.382a1.977,1.977,0,0,1-2.427.187L31.613,61.727Zm2.614,53.4h-11.2V87.867H26.758v22.406H11.821V83.2a16.687,16.687,0,0,1,7.842-14.19l8.4-5.228,11.576,8.776a7.367,7.367,0,0,0,2.8,1.12l7.1,14.377H41.7Zm18.671,0H45.43V91.6H60.367Zm33.609,0H64.1V87.867H55.886l7.1-14.377a3.8,3.8,0,0,0,2.8-1.12l11.576-8.776,6.908,4.294L67.835,105.6,71.2,107.1l8.215-19.045,4.108,1.307A3.956,3.956,0,0,1,85.947,94.4a3.809,3.809,0,0,1-3.734,2.614H80.905v3.734h7.842a12.529,12.529,0,0,0,5.228-1.12ZM89.121,97.2l.56-1.12a7.65,7.65,0,0,0-4.294-9.9c-.187,0-.187-.187-.373-.187l-3.734-1.307,8.029-18.671,7.655,18.485a8.926,8.926,0,0,1-4.855,11.763A5.642,5.642,0,0,1,89.121,97.2Z" transform="translate(0)" fill="#f4a35e"/>
    </g>
  </g>
</svg>
