<?xml version="1.0" encoding="UTF-8"?>
<!DOCTYPE svg PUBLIC "-//W3C//DTD SVG 1.1//EN" "http://www.w3.org/Graphics/SVG/1.1/DTD/svg11.dtd">
<!-- Creator: CorelDRAW -->
<svg xmlns="http://www.w3.org/2000/svg" xml:space="preserve" width="46.6945mm" height="49.4311mm" version="1.1" style="shape-rendering:geometricPrecision; text-rendering:geometricPrecision; image-rendering:optimizeQuality; fill-rule:evenodd; clip-rule:evenodd"
viewBox="0 0 1342.55 1421.24"
 xmlns:xlink="http://www.w3.org/1999/xlink"
 xmlns:xodm="http://www.corel.com/coreldraw/odm/2003">
 <defs>
  <style type="text/css">
   <![CDATA[
    .fil5 {fill:none}
    .fil3 {fill:#FFD859}
    .fil2 {fill:#EC6A31}
    .fil1 {fill:#D42326}
    .fil4 {fill:#B02928}
    .fil10 {fill:#B02928;fill-rule:nonzero}
    .fil6 {fill:url(#id6)}
    .fil14 {fill:url(#id7)}
    .fil7 {fill:url(#id8)}
    .fil12 {fill:url(#id9)}
    .fil11 {fill:url(#id10)}
    .fil9 {fill:url(#id11)}
    .fil8 {fill:url(#id12)}
    .fil0 {fill:url(#id13)}
    .fil13 {fill:url(#id14)}
   ]]>
  </style>
     <clipPath id="id0">
      <path d="M545.04 583.49c-53.7,12.63 -98.98,47.8 -125.09,95.18l-209.32 0 0 -22.11c0,-69.07 56.01,-125.3 125.3,-125.3l11.58 0c0,21.06 42.12,59.6 42.12,59.6 0,0 42.12,-38.54 42.12,-59.6l11.79 0c41.91,0 78.76,20.64 101.5,52.23z"/>
     </clipPath>
     <clipPath id="id1">
      <path d="M477.4 394.48c0,-41 -33.23,-74.23 -74.23,-74.23 -41,0 -74.24,33.23 -74.24,74.23 0,41 33.24,74.23 74.24,74.23 41,0 74.23,-33.23 74.23,-74.23z"/>
     </clipPath>
     <clipPath id="id2">
      <path d="M1203.53 654l0 22.11 -251.86 0c-20.22,-36.64 -52.02,-65.91 -90.13,-83.18 21.48,-38.33 62.33,-64.23 109.29,-64.23l11.58 0c0,21.06 42.12,59.6 42.12,59.6 0,0 42.12,-38.54 42.12,-59.6l11.79 0c69.07,0 125.09,56.23 125.09,125.3z"/>
     </clipPath>
     <clipPath id="id3">
      <path d="M1087.5 394.48c0,-41 -33.23,-74.23 -74.23,-74.23 -41,0 -74.23,33.23 -74.23,74.23 0,41 33.23,74.23 74.23,74.23 41,0 74.23,-33.23 74.23,-74.23z"/>
     </clipPath>
     <clipPath id="id4">
      <path d="M964.32 782.88l0 34.32 -554.89 0 0 -34.32c0,-33.9 8.63,-65.91 24.01,-93.71 26.11,-47.38 71.39,-82.55 125.09,-95.19 14.32,-3.37 29.48,-5.26 44.86,-5.26l18.11 0c0,32.64 65.28,92.45 65.28,92.45 0,0 65.28,-59.81 65.28,-92.45l18.32 0c28.43,0 55.38,6.11 79.81,17.27 38.12,17.27 69.91,46.54 90.13,83.18 15.37,27.8 24,59.81 24,93.71z"/>
     </clipPath>
     <clipPath id="id5">
      <path d="M801.92 360.39c0,-63.55 -51.52,-115.07 -115.07,-115.07 -63.55,0 -115.07,51.52 -115.07,115.07 0,63.55 51.52,115.07 115.07,115.07 63.55,0 115.07,-51.52 115.07,-115.07z"/>
     </clipPath>
  <linearGradient id="id6" gradientUnits="objectBoundingBox" x1="0%" y1="50%" x2="100%" y2="50%">
   <stop offset="0" style="stop-opacity:1; stop-color:#F9B112"/>
   <stop offset="1" style="stop-opacity:1; stop-color:white"/>
  </linearGradient>
  <linearGradient id="id7" gradientUnits="userSpaceOnUse" x1="-0" y1="710.62" x2="1342.55" y2="710.62">
   <stop offset="0" style="stop-opacity:1; stop-color:#B02928"/>
   <stop offset="1" style="stop-opacity:1; stop-color:#DF6D38"/>
  </linearGradient>
  <linearGradient id="id8" gradientUnits="userSpaceOnUse" xlink:href="#id6" x1="861.54" y1="602.41" x2="1203.53" y2="602.41">
  </linearGradient>
  <linearGradient id="id9" gradientUnits="userSpaceOnUse" x1="1154.76" y1="1140.77" x2="1240.67" y2="1140.77">
   <stop offset="0" style="stop-opacity:1; stop-color:#EC6A31"/>
   <stop offset="1" style="stop-opacity:1; stop-color:#A13327"/>
  </linearGradient>
  <linearGradient id="id10" gradientUnits="userSpaceOnUse" xlink:href="#id9" x1="1097.07" y1="1139.87" x2="1200.64" y2="1139.87">
  </linearGradient>
  <linearGradient id="id11" gradientUnits="userSpaceOnUse" x1="571.79" y1="360.39" x2="801.93" y2="360.39">
   <stop offset="0" style="stop-opacity:1; stop-color:#B02928"/>
   <stop offset="1" style="stop-opacity:1; stop-color:white"/>
  </linearGradient>
  <linearGradient id="id12" gradientUnits="userSpaceOnUse" xlink:href="#id11" x1="409.43" y1="702.96" x2="964.32" y2="702.96">
  </linearGradient>
  <linearGradient id="id13" gradientUnits="userSpaceOnUse" xlink:href="#id6" x1="210.63" y1="604.97" x2="545.04" y2="604.97">
  </linearGradient>
  <linearGradient id="id14" gradientUnits="userSpaceOnUse" x1="1260.96" y1="1083" x2="1199.97" y2="1170.96">
   <stop offset="0" style="stop-opacity:1; stop-color:#B02928"/>
   <stop offset="1" style="stop-opacity:1; stop-color:#DF6E38"/>
  </linearGradient>
 </defs>
 <g id="Layer_x0020_1">
  <metadata id="CorelCorpID_0Corel-Layer"/>
  <g id="_105554282542400">
   <g>
    <path class="fil0" d="M545.04 583.49c-53.7,12.63 -98.98,47.8 -125.09,95.18l-209.32 0 0 -22.11c0,-69.07 56.01,-125.3 125.3,-125.3l11.58 0c0,21.06 42.12,59.6 42.12,59.6 0,0 42.12,-38.54 42.12,-59.6l11.79 0c41.91,0 78.76,20.64 101.5,52.23z"/>
    <g style="clip-path:url(#id0)">
     <g>
      <g>
       <path id="1" class="fil1" d="M364.97 306.3c58.96,-20.3 105.37,2.27 139.22,67.7 -79.1,21.75 -138.44,46.09 -178.01,73.03 -33.97,-64.11 -21.04,-111.02 38.79,-140.73z"/>
       <path class="fil2" d="M504.19 374c-27.36,111.44 -86.7,135.78 -178.01,73.03 47.76,-34.13 108.5,-55.91 178.01,-73.03z"/>
       <path class="fil1" d="M340.61 904.12l-171.16 -201.34c9.03,-119.12 66.48,-189.11 161.93,-208.45l250.07 408.64 -240.83 1.15z"/>
       <path class="fil2" d="M539.45 841.81c-136.65,-232.99 -209.65,-347.92 -213.27,-346.72 207.31,2.3 328.26,28.42 362.85,78.36l0 266.25 -149.58 2.1z"/>
       <path class="fil1" d="M689.02 350.48c-49.33,-0.04 -93.43,3.64 -132.3,11.03 5.55,-80.1 49.65,-124.73 132.3,-133.89l0 122.86z"/>
       <path class="fil3" d="M689.02 350.48l0 -122.86c77.56,7.93 130.07,54.34 157.54,139.22 -52.24,-10.74 -104.76,-16.2 -157.54,-16.36z"/>
       <path class="fil4" d="M846.57 366.84c-47.41,-10.61 -99.94,-17.61 -157.54,-16.36l0 138.08c87.8,-10.09 140.32,-50.67 157.54,-121.72z"/>
       <path class="fil2" d="M689.02 488.55l0 -138.08c-48.59,-0.11 -92.69,3.57 -132.3,11.03 7.79,83.74 51.89,126.09 132.3,127.04z"/>
       <path class="fil4" d="M896.39 350.33l-207.37 223.13 0 330.66c74.85,0 112.28,0 112.28,0l285.09 -465.82c-41.35,-34.04 -98.3,-63.44 -189.99,-87.97z"/>
       <path class="fil3" d="M1029.52 294.57c-67.24,4.5 -97.85,7.7 -101.82,64.73 61.96,19.43 120.52,49.4 158.69,79 48.73,-70.33 20.77,-103.5 -56.87,-143.73z"/>
       <path class="fil1" d="M1260.78 620.93c-50.99,-65.85 -116.35,-119.37 -189.66,-161.93l-231.32 380.67 357.08 -4.97 63.9 -213.77z"/>
      </g>
     </g>
    </g>
    <path class="fil5" d="M545.04 583.49c-53.7,12.63 -98.98,47.8 -125.09,95.18l-209.32 0 0 -22.11c0,-69.07 56.01,-125.3 125.3,-125.3l11.58 0c0,21.06 42.12,59.6 42.12,59.6 0,0 42.12,-38.54 42.12,-59.6l11.79 0c41.91,0 78.76,20.64 101.5,52.23z"/>
    <path class="fil6" d="M477.4 394.48c0,-41 -33.23,-74.23 -74.23,-74.23 -41,0 -74.24,33.23 -74.24,74.23 0,41 33.24,74.23 74.24,74.23 41,0 74.23,-33.23 74.23,-74.23z"/>
    <g style="clip-path:url(#id1)">
     <g>
      <g>
       <path id="1" class="fil1" d="M364.97 306.3c58.96,-20.3 105.37,2.27 139.22,67.7 -79.1,21.75 -138.44,46.09 -178.01,73.03 -33.97,-64.11 -21.04,-111.02 38.79,-140.73z"/>
       <path class="fil2" d="M504.19 374c-27.36,111.44 -86.7,135.78 -178.01,73.03 47.76,-34.13 108.5,-55.91 178.01,-73.03z"/>
       <path class="fil1" d="M340.61 904.12l-171.16 -201.34c9.03,-119.12 66.48,-189.11 161.93,-208.45l250.07 408.64 -240.83 1.15z"/>
       <path class="fil2" d="M539.45 841.81c-136.65,-232.99 -209.65,-347.92 -213.27,-346.72 207.31,2.3 328.26,28.42 362.85,78.36l0 266.25 -149.58 2.1z"/>
       <path class="fil1" d="M689.02 350.48c-49.33,-0.04 -93.43,3.64 -132.3,11.03 5.55,-80.1 49.65,-124.73 132.3,-133.89l0 122.86z"/>
       <path class="fil3" d="M689.02 350.48l0 -122.86c77.56,7.93 130.07,54.34 157.54,139.22 -52.24,-10.74 -104.76,-16.2 -157.54,-16.36z"/>
       <path class="fil4" d="M846.57 366.84c-47.41,-10.61 -99.94,-17.61 -157.54,-16.36l0 138.08c87.8,-10.09 140.32,-50.67 157.54,-121.72z"/>
       <path class="fil2" d="M689.02 488.55l0 -138.08c-48.59,-0.11 -92.69,3.57 -132.3,11.03 7.79,83.74 51.89,126.09 132.3,127.04z"/>
       <path class="fil4" d="M896.39 350.33l-207.37 223.13 0 330.66c74.85,0 112.28,0 112.28,0l285.09 -465.82c-41.35,-34.04 -98.3,-63.44 -189.99,-87.97z"/>
       <path class="fil3" d="M1029.52 294.57c-67.24,4.5 -97.85,7.7 -101.82,64.73 61.96,19.43 120.52,49.4 158.69,79 48.73,-70.33 20.77,-103.5 -56.87,-143.73z"/>
       <path class="fil1" d="M1260.78 620.93c-50.99,-65.85 -116.35,-119.37 -189.66,-161.93l-231.32 380.67 357.08 -4.97 63.9 -213.77z"/>
      </g>
     </g>
    </g>
    <path class="fil5" d="M477.4 394.48c0,-41 -33.23,-74.23 -74.23,-74.23 -41,0 -74.24,33.23 -74.24,74.23 0,41 33.24,74.23 74.24,74.23 41,0 74.23,-33.23 74.23,-74.23z"/>
    <path class="fil7" d="M1203.53 654l0 22.11 -251.86 0c-20.22,-36.64 -52.02,-65.91 -90.13,-83.18 21.48,-38.33 62.33,-64.23 109.29,-64.23l11.58 0c0,21.06 42.12,59.6 42.12,59.6 0,0 42.12,-38.54 42.12,-59.6l11.79 0c69.07,0 125.09,56.23 125.09,125.3z"/>
    <g style="clip-path:url(#id2)">
     <g>
      <g>
       <path id="1" class="fil1" d="M364.97 306.3c58.96,-20.3 105.37,2.27 139.22,67.7 -79.1,21.75 -138.44,46.09 -178.01,73.03 -33.97,-64.11 -21.04,-111.02 38.79,-140.73z"/>
       <path class="fil2" d="M504.19 374c-27.36,111.44 -86.7,135.78 -178.01,73.03 47.76,-34.13 108.5,-55.91 178.01,-73.03z"/>
       <path class="fil1" d="M340.61 904.12l-171.16 -201.34c9.03,-119.12 66.48,-189.11 161.93,-208.45l250.07 408.64 -240.83 1.15z"/>
       <path class="fil2" d="M539.45 841.81c-136.65,-232.99 -209.65,-347.92 -213.27,-346.72 207.31,2.3 328.26,28.42 362.85,78.36l0 266.25 -149.58 2.1z"/>
       <path class="fil1" d="M689.02 350.48c-49.33,-0.04 -93.43,3.64 -132.3,11.03 5.55,-80.1 49.65,-124.73 132.3,-133.89l0 122.86z"/>
       <path class="fil3" d="M689.02 350.48l0 -122.86c77.56,7.93 130.07,54.34 157.54,139.22 -52.24,-10.74 -104.76,-16.2 -157.54,-16.36z"/>
       <path class="fil4" d="M846.57 366.84c-47.41,-10.61 -99.94,-17.61 -157.54,-16.36l0 138.08c87.8,-10.09 140.32,-50.67 157.54,-121.72z"/>
       <path class="fil2" d="M689.02 488.55l0 -138.08c-48.59,-0.11 -92.69,3.57 -132.3,11.03 7.79,83.74 51.89,126.09 132.3,127.04z"/>
       <path class="fil4" d="M896.39 350.33l-207.37 223.13 0 330.66c74.85,0 112.28,0 112.28,0l285.09 -465.82c-41.35,-34.04 -98.3,-63.44 -189.99,-87.97z"/>
       <path class="fil3" d="M1029.52 294.57c-67.24,4.5 -97.85,7.7 -101.82,64.73 61.96,19.43 120.52,49.4 158.69,79 48.73,-70.33 20.77,-103.5 -56.87,-143.73z"/>
       <path class="fil1" d="M1260.78 620.93c-50.99,-65.85 -116.35,-119.37 -189.66,-161.93l-231.32 380.67 357.08 -4.97 63.9 -213.77z"/>
      </g>
     </g>
    </g>
    <path class="fil5" d="M1203.53 654l0 22.11 -251.86 0c-20.22,-36.64 -52.02,-65.91 -90.13,-83.18 21.48,-38.33 62.33,-64.23 109.29,-64.23l11.58 0c0,21.06 42.12,59.6 42.12,59.6 0,0 42.12,-38.54 42.12,-59.6l11.79 0c69.07,0 125.09,56.23 125.09,125.3z"/>
    <path class="fil6" d="M1087.5 394.48c0,-41 -33.23,-74.23 -74.23,-74.23 -41,0 -74.23,33.23 -74.23,74.23 0,41 33.23,74.23 74.23,74.23 41,0 74.23,-33.23 74.23,-74.23z"/>
    <g style="clip-path:url(#id3)">
     <g>
      <g>
       <path id="1" class="fil1" d="M364.97 306.3c58.96,-20.3 105.37,2.27 139.22,67.7 -79.1,21.75 -138.44,46.09 -178.01,73.03 -33.97,-64.11 -21.04,-111.02 38.79,-140.73z"/>
       <path class="fil2" d="M504.19 374c-27.36,111.44 -86.7,135.78 -178.01,73.03 47.76,-34.13 108.5,-55.91 178.01,-73.03z"/>
       <path class="fil1" d="M340.61 904.12l-171.16 -201.34c9.03,-119.12 66.48,-189.11 161.93,-208.45l250.07 408.64 -240.83 1.15z"/>
       <path class="fil2" d="M539.45 841.81c-136.65,-232.99 -209.65,-347.92 -213.27,-346.72 207.31,2.3 328.26,28.42 362.85,78.36l0 266.25 -149.58 2.1z"/>
       <path class="fil1" d="M689.02 350.48c-49.33,-0.04 -93.43,3.64 -132.3,11.03 5.55,-80.1 49.65,-124.73 132.3,-133.89l0 122.86z"/>
       <path class="fil3" d="M689.02 350.48l0 -122.86c77.56,7.93 130.07,54.34 157.54,139.22 -52.24,-10.74 -104.76,-16.2 -157.54,-16.36z"/>
       <path class="fil4" d="M846.57 366.84c-47.41,-10.61 -99.94,-17.61 -157.54,-16.36l0 138.08c87.8,-10.09 140.32,-50.67 157.54,-121.72z"/>
       <path class="fil2" d="M689.02 488.55l0 -138.08c-48.59,-0.11 -92.69,3.57 -132.3,11.03 7.79,83.74 51.89,126.09 132.3,127.04z"/>
       <path class="fil4" d="M896.39 350.33l-207.37 223.13 0 330.66c74.85,0 112.28,0 112.28,0l285.09 -465.82c-41.35,-34.04 -98.3,-63.44 -189.99,-87.97z"/>
       <path class="fil3" d="M1029.52 294.57c-67.24,4.5 -97.85,7.7 -101.82,64.73 61.96,19.43 120.52,49.4 158.69,79 48.73,-70.33 20.77,-103.5 -56.87,-143.73z"/>
       <path class="fil1" d="M1260.78 620.93c-50.99,-65.85 -116.35,-119.37 -189.66,-161.93l-231.32 380.67 357.08 -4.97 63.9 -213.77z"/>
      </g>
     </g>
    </g>
    <path class="fil5" d="M1087.5 394.48c0,-41 -33.23,-74.23 -74.23,-74.23 -41,0 -74.23,33.23 -74.23,74.23 0,41 33.23,74.23 74.23,74.23 41,0 74.23,-33.23 74.23,-74.23z"/>
    <path class="fil8" d="M964.32 782.88l0 34.32 -554.89 0 0 -34.32c0,-33.9 8.63,-65.91 24.01,-93.71 26.11,-47.38 71.39,-82.55 125.09,-95.19 14.32,-3.37 29.48,-5.26 44.86,-5.26l18.11 0c0,32.64 65.28,92.45 65.28,92.45 0,0 65.28,-59.81 65.28,-92.45l18.32 0c28.43,0 55.38,6.11 79.81,17.27 38.12,17.27 69.91,46.54 90.13,83.18 15.37,27.8 24,59.81 24,93.71z"/>
    <g style="clip-path:url(#id4)">
     <g>
      <g>
       <path id="1" class="fil1" d="M364.97 306.3c58.96,-20.3 105.37,2.27 139.22,67.7 -79.1,21.75 -138.44,46.09 -178.01,73.03 -33.97,-64.11 -21.04,-111.02 38.79,-140.73z"/>
       <path class="fil2" d="M504.19 374c-27.36,111.44 -86.7,135.78 -178.01,73.03 47.76,-34.13 108.5,-55.91 178.01,-73.03z"/>
       <path class="fil1" d="M340.61 904.12l-171.16 -201.34c9.03,-119.12 66.48,-189.11 161.93,-208.45l250.07 408.64 -240.83 1.15z"/>
       <path class="fil2" d="M539.45 841.81c-136.65,-232.99 -209.65,-347.92 -213.27,-346.72 207.31,2.3 328.26,28.42 362.85,78.36l0 266.25 -149.58 2.1z"/>
       <path class="fil1" d="M689.02 350.48c-49.33,-0.04 -93.43,3.64 -132.3,11.03 5.55,-80.1 49.65,-124.73 132.3,-133.89l0 122.86z"/>
       <path class="fil3" d="M689.02 350.48l0 -122.86c77.56,7.93 130.07,54.34 157.54,139.22 -52.24,-10.74 -104.76,-16.2 -157.54,-16.36z"/>
       <path class="fil4" d="M846.57 366.84c-47.41,-10.61 -99.94,-17.61 -157.54,-16.36l0 138.08c87.8,-10.09 140.32,-50.67 157.54,-121.72z"/>
       <path class="fil2" d="M689.02 488.55l0 -138.08c-48.59,-0.11 -92.69,3.57 -132.3,11.03 7.79,83.74 51.89,126.09 132.3,127.04z"/>
       <path class="fil4" d="M896.39 350.33l-207.37 223.13 0 330.66c74.85,0 112.28,0 112.28,0l285.09 -465.82c-41.35,-34.04 -98.3,-63.44 -189.99,-87.97z"/>
       <path class="fil3" d="M1029.52 294.57c-67.24,4.5 -97.85,7.7 -101.82,64.73 61.96,19.43 120.52,49.4 158.69,79 48.73,-70.33 20.77,-103.5 -56.87,-143.73z"/>
       <path class="fil1" d="M1260.78 620.93c-50.99,-65.85 -116.35,-119.37 -189.66,-161.93l-231.32 380.67 357.08 -4.97 63.9 -213.77z"/>
      </g>
     </g>
    </g>
    <path class="fil5" d="M964.32 782.88l0 34.32 -554.89 0 0 -34.32c0,-33.9 8.63,-65.91 24.01,-93.71 26.11,-47.38 71.39,-82.55 125.09,-95.19 14.32,-3.37 29.48,-5.26 44.86,-5.26l18.11 0c0,32.64 65.28,92.45 65.28,92.45 0,0 65.28,-59.81 65.28,-92.45l18.32 0c28.43,0 55.38,6.11 79.81,17.27 38.12,17.27 69.91,46.54 90.13,83.18 15.37,27.8 24,59.81 24,93.71z"/>
    <path class="fil9" d="M801.92 360.39c0,-63.55 -51.52,-115.07 -115.07,-115.07 -63.55,0 -115.07,51.52 -115.07,115.07 0,63.55 51.52,115.07 115.07,115.07 63.55,0 115.07,-51.52 115.07,-115.07z"/>
    <g style="clip-path:url(#id5)">
     <g>
      <g>
       <path id="1" class="fil1" d="M364.97 306.3c58.96,-20.3 105.37,2.27 139.22,67.7 -79.1,21.75 -138.44,46.09 -178.01,73.03 -33.97,-64.11 -21.04,-111.02 38.79,-140.73z"/>
       <path class="fil2" d="M504.19 374c-27.36,111.44 -86.7,135.78 -178.01,73.03 47.76,-34.13 108.5,-55.91 178.01,-73.03z"/>
       <path class="fil1" d="M340.61 904.12l-171.16 -201.34c9.03,-119.12 66.48,-189.11 161.93,-208.45l250.07 408.64 -240.83 1.15z"/>
       <path class="fil2" d="M539.45 841.81c-136.65,-232.99 -209.65,-347.92 -213.27,-346.72 207.31,2.3 328.26,28.42 362.85,78.36l0 266.25 -149.58 2.1z"/>
       <path class="fil1" d="M689.02 350.48c-49.33,-0.04 -93.43,3.64 -132.3,11.03 5.55,-80.1 49.65,-124.73 132.3,-133.89l0 122.86z"/>
       <path class="fil3" d="M689.02 350.48l0 -122.86c77.56,7.93 130.07,54.34 157.54,139.22 -52.24,-10.74 -104.76,-16.2 -157.54,-16.36z"/>
       <path class="fil4" d="M846.57 366.84c-47.41,-10.61 -99.94,-17.61 -157.54,-16.36l0 138.08c87.8,-10.09 140.32,-50.67 157.54,-121.72z"/>
       <path class="fil2" d="M689.02 488.55l0 -138.08c-48.59,-0.11 -92.69,3.57 -132.3,11.03 7.79,83.74 51.89,126.09 132.3,127.04z"/>
       <path class="fil4" d="M896.39 350.33l-207.37 223.13 0 330.66c74.85,0 112.28,0 112.28,0l285.09 -465.82c-41.35,-34.04 -98.3,-63.44 -189.99,-87.97z"/>
       <path class="fil3" d="M1029.52 294.57c-67.24,4.5 -97.85,7.7 -101.82,64.73 61.96,19.43 120.52,49.4 158.69,79 48.73,-70.33 20.77,-103.5 -56.87,-143.73z"/>
       <path class="fil1" d="M1260.78 620.93c-50.99,-65.85 -116.35,-119.37 -189.66,-161.93l-231.32 380.67 357.08 -4.97 63.9 -213.77z"/>
      </g>
     </g>
    </g>
    <path class="fil5" d="M801.92 360.39c0,-63.55 -51.52,-115.07 -115.07,-115.07 -63.55,0 -115.07,51.52 -115.07,115.07 0,63.55 51.52,115.07 115.07,115.07 63.55,0 115.07,-51.52 115.07,-115.07z"/>
   </g>
   <g>
    <path class="fil10" d="M507.14 1083.32c-12.88,0 -24.08,-2.78 -33.61,-8.33 -9.53,-5.55 -16.85,-13.48 -21.97,-23.77 -5.11,-10.29 -7.67,-22.38 -7.67,-36.26 0,-13.89 2.56,-25.97 7.67,-36.26 5.11,-10.29 12.44,-18.18 21.97,-23.67 9.53,-5.49 20.74,-8.24 33.61,-8.24 9.09,0 17.55,1.42 25.37,4.26 7.83,2.84 14.46,6.91 19.88,12.21l-6.82 14.39c-6.18,-5.18 -12.34,-8.9 -18.46,-11.17 -6.12,-2.27 -12.72,-3.41 -19.79,-3.41 -13.89,0 -24.59,4.48 -32.1,13.45 -7.51,8.96 -11.27,21.78 -11.27,38.44 0,16.66 3.75,29.51 11.27,38.54 7.51,9.03 18.21,13.54 32.1,13.54 7.07,0 13.67,-1.14 19.79,-3.41 6.12,-2.27 12.28,-6 18.46,-11.17l6.82 14.39c-5.43,5.3 -12.06,9.37 -19.88,12.21 -7.83,2.84 -16.29,4.26 -25.37,4.26zm168.73 -1.52l-14.2 -32.95 -67.61 0 -14.2 32.95 -19.69 0 59.46 -133.51 16.29 0 59.46 133.51 -19.51 0zm-75.18 -48.48l54.35 0 -27.08 -63.25 -27.27 63.25zm220.43 48.48l-21.59 0 -22.73 -42.8c-2.52,-4.55 -5.52,-7.73 -9,-9.56 -3.47,-1.83 -8.05,-2.75 -13.73,-2.75l-21.97 0 0 55.11 -19.32 0 0 -133.51 56.81 0c14.77,0 26.04,3.28 33.8,9.85 7.76,6.56 11.64,16.16 11.64,28.78 0,10.23 -2.87,18.62 -8.61,25.19 -5.74,6.56 -13.92,10.73 -24.53,12.5 6.56,2.02 12,6.94 16.29,14.77l22.91 42.42zm-53.78 -70.82c9.85,0 17.14,-1.93 21.87,-5.78 4.74,-3.85 7.1,-9.82 7.1,-17.9 0,-8.08 -2.33,-13.98 -7.01,-17.71 -4.67,-3.73 -11.99,-5.59 -21.97,-5.59l-35.41 0 0 46.96 35.41 0zm76.13 70.82l0 -133.51 86.73 0 0 15.72 -67.61 0 0 42.04 63.82 0 0 15.91 -63.82 0 0 44.12 67.61 0 0 15.72 -86.73 0z"/>
    <path class="fil10" d="M636.28 924.9l-9.13 -21.18 -43.45 0 -9.13 21.18 -12.66 0 38.22 -85.81 10.47 0 38.22 85.81 -12.54 0zm-48.32 -31.16l34.93 0 -17.4 -40.65 -17.53 40.65zm122.57 -13.02c4.95,1.38 8.78,3.86 11.5,7.42 2.72,3.57 4.08,8.03 4.08,13.39 0,7.38 -2.54,13.13 -7.61,17.22 -5.07,4.1 -12.15,6.15 -21.24,6.15l-37.25 0 0 -85.81 35.91 0c8.84,0 15.76,1.97 20.75,5.9 4.99,3.94 7.49,9.43 7.49,16.49 0,4.54 -1.2,8.48 -3.59,11.81 -2.4,3.33 -5.74,5.8 -10.04,7.42zm-38.22 -4.5l21.66 0c12.01,0 18.01,-4.55 18.01,-13.63 0,-4.55 -1.48,-7.91 -4.44,-10.1 -2.96,-2.19 -7.48,-3.29 -13.57,-3.29l-21.66 0 0 27.02zm23.61 38.58c6.25,0 10.83,-1.14 13.75,-3.41 2.92,-2.27 4.38,-5.8 4.38,-10.59 0,-4.87 -1.48,-8.5 -4.44,-10.89 -2.96,-2.39 -7.53,-3.59 -13.69,-3.59l-23.61 0 0 28.48 23.61 0zm116.24 -35.42l0 40.41c-3.65,1.87 -8.24,3.35 -13.75,4.44 -5.52,1.1 -11.12,1.64 -16.8,1.64 -8.68,0 -16.19,-1.75 -22.52,-5.24 -6.33,-3.49 -11.16,-8.52 -14.49,-15.09 -3.33,-6.57 -4.99,-14.44 -4.99,-23.61 0,-9.01 1.66,-16.82 4.99,-23.43 3.33,-6.61 8.09,-11.66 14.3,-15.15 6.21,-3.49 13.53,-5.23 21.97,-5.23 6.09,0 11.68,0.89 16.8,2.68 5.11,1.79 9.45,4.38 13.02,7.79l-4.51 9.25c-4.06,-3.33 -8.07,-5.72 -12.05,-7.18 -3.97,-1.46 -8.36,-2.19 -13.14,-2.19 -9.25,0 -16.33,2.86 -21.24,8.58 -4.91,5.72 -7.36,14.02 -7.36,24.89 0,11.12 2.52,19.54 7.55,25.26 5.03,5.72 12.37,8.58 22.03,8.58 6.33,0 12.58,-0.93 18.74,-2.8l0 -24.1 -19.96 0 0 -9.49 31.4 0z"/>
   </g>
   <g>
    <path class="fil11" d="M1197.44 1105.59l-45.93 75.36c-11.93,3.4 -35.65,11.26 -54.44,15.48l67.87 -111.28c15.4,-4.85 45.57,-0.7 32.49,20.44z"/>
    <path class="fil12" d="M1154.76 1180l44.74 -68.41c12.1,-25.14 96.75,-2.43 -19.11,60.95 -5.25,2.87 -18.12,5.16 -25.63,7.46z"/>
    <path class="fil13" d="M1191.6 1169.81c26.42,-14.09 47.49,-32.03 56.28,-50.75 51.23,-19.01 56.9,35 -56.28,50.75z"/>
    <path class="fil14" d="M999.54 124.88c28.99,18.76 136.44,-29.23 110.47,-42.09 -448.58,-222.1 -1096.03,4.36 -1109.84,659.15 -8.69,412.33 328.2,819.4 964.37,632.63 78.24,-28.64 141.4,-59.2 192.8,-85.49 67.69,-34.63 122.61,-45.53 155.84,-58.84 30.31,-12.13 35.04,-33.94 23.84,-47.04 -44.8,-52.47 -324.35,50.99 -391.78,76.55 -52.74,13.68 -92.86,17.95 -120.36,12.81 -34.04,-8.06 -49.13,-21.31 -45.25,-39.73 6.07,-21.23 30.28,-33.03 72.52,-31.17 37.56,1.65 101.03,22.05 107.85,-33.47 -41.74,-23.53 -108.75,-33.16 -201.04,-29.49 -53.38,2.12 -102.19,6.95 -146.71,12.6 -45.68,5.79 -84.44,5.96 -116.01,2.97 -103.69,-8.36 -189.02,-52.24 -254.82,-132.6 -43.72,-53.4 -73.32,-121.2 -89.04,-202.63 -12.76,-66.11 -13.49,-135.5 -3.15,-207.99 12.55,-74.67 32.07,-136.61 55.44,-187.32 23.2,-50.32 56.27,-103.09 102.37,-156.89 43.75,-47.53 88.69,-84.46 134.81,-110.8 45.19,-25.39 86.14,-41 120.81,-53.17 164.25,-57.63 388.32,-9.38 436.86,22.02z"/>
   </g>
  </g>
 </g>
</svg>
