<svg xmlns="http://www.w3.org/2000/svg" xmlns:xlink="http://www.w3.org/1999/xlink" width="18" height="18" viewBox="0 0 18 18">
  <defs>
    <clipPath id="clip-Call">
      <rect width="18" height="18"/>
    </clipPath>
  </defs>
  <g id="Call" clip-path="url(#clip-Call)">
    <g id="phone-line_2_" data-name="phone-line (2)" transform="translate(1 1)">
      <path id="Path_502" data-name="Path 502" d="M0,0H16V16H0Z" fill="none"/>
      <path id="Path_503" data-name="Path 503" d="M7.256,8.136A7.058,7.058,0,0,0,9.9,10.779l.591-.828a.669.669,0,0,1,.865-.2,7.637,7.637,0,0,0,3.064.912.669.669,0,0,1,.616.667v2.983a.669.669,0,0,1-.6.665A10.37,10.37,0,0,1,3.055,3.6.669.669,0,0,1,3.72,3H6.7a.669.669,0,0,1,.667.616A7.637,7.637,0,0,0,8.282,6.68a.669.669,0,0,1-.2.865ZM5.57,7.7,6.84,6.79a8.966,8.966,0,0,1-.733-2.452H4.344c0,.111-.006.223-.006.334A9.025,9.025,0,0,0,13.363,13.7c.112,0,.223,0,.334-.007V11.928a8.966,8.966,0,0,1-2.452-.733l-.907,1.27a8.319,8.319,0,0,1-1.062-.5l-.039-.022A8.4,8.4,0,0,1,6.094,8.8l-.022-.039A8.319,8.319,0,0,1,5.57,7.7Z" transform="translate(-1.017 -1.017)" fill="#707070"/>
    </g>
  </g>
</svg>
