<svg xmlns="http://www.w3.org/2000/svg" xmlns:xlink="http://www.w3.org/1999/xlink" width="32" height="32" viewBox="0 0 32 32">
  <defs>
    <clipPath id="clip-Artboard_6">
      <rect width="32" height="32"/>
    </clipPath>
  </defs>
  <g id="Artboard_6" data-name="Artboard – 6" clip-path="url(#clip-Artboard_6)">
    <g id="Group_505" data-name="Group 505" transform="translate(-534 -703)">
      <rect id="Rectangle_249" data-name="Rectangle 249" width="30" height="30" rx="4" transform="translate(535 704)" fill="#3a83f7"/>
      <g id="health-insurance" transform="translate(504.458 710)">
        <path id="Path_526" data-name="Path 526" d="M53.266,4.706V4.69c-.008-.433-.016-.841-.016-1.234a1.081,1.081,0,0,0-1.08-1.08,7.4,7.4,0,0,1-5.5-2.068,1.075,1.075,0,0,0-1.506,0,7.4,7.4,0,0,1-5.5,2.068,1.081,1.081,0,0,0-1.08,1.08c0,.4-.008.814-.016,1.251a18.805,18.805,0,0,0,.765,6.884,8.751,8.751,0,0,0,2.109,3.273,11.019,11.019,0,0,0,4.126,2.429,1.079,1.079,0,0,0,.708,0,11.02,11.02,0,0,0,4.126-2.43A8.751,8.751,0,0,0,52.5,11.591a18.805,18.805,0,0,0,.765-6.884Zm-1.718,6.532a8.442,8.442,0,0,1-5.615,5.1.063.063,0,0,1-.041,0,8.441,8.441,0,0,1-5.614-5.095,17.742,17.742,0,0,1-.7-6.512c.008-.442.016-.859.016-1.271a.063.063,0,0,1,.063-.063,8.36,8.36,0,0,0,6.212-2.356.063.063,0,0,1,.088,0A8.362,8.362,0,0,0,52.17,3.392a.064.064,0,0,1,.063.063c0,.4.008.816.016,1.254v.017h0A17.74,17.74,0,0,1,51.548,11.238Z" transform="translate(0 0)"/>
        <path id="Path_527" data-name="Path 527" d="M154.656,144.991H153.02v-1.636a.508.508,0,0,0-.508-.508h-2.029a.508.508,0,0,0-.508.508v1.636h-1.636a.508.508,0,0,0-.508.508v2.029a.508.508,0,0,0,.508.508h1.636v1.636a.508.508,0,0,0,.508.508h2.029a.508.508,0,0,0,.508-.508v-1.636h1.636a.508.508,0,0,0,.508-.508V145.5A.508.508,0,0,0,154.656,144.991Zm-.508,2.029h-1.636a.508.508,0,0,0-.508.508v1.636h-1.012v-1.636a.508.508,0,0,0-.508-.508h-1.636v-1.012h1.636a.508.508,0,0,0,.508-.508v-1.636H152V145.5a.508.508,0,0,0,.508.508h1.636v1.012Z" transform="translate(-105.584 -138.006)"/>
      </g>
    </g>
  </g>
</svg>
