<svg xmlns="http://www.w3.org/2000/svg" xmlns:xlink="http://www.w3.org/1999/xlink" width="24" height="24" viewBox="0 0 24 24">
  <defs>
    <clipPath id="clip-Hospital">
      <rect width="24" height="24"/>
    </clipPath>
  </defs>
  <g id="Hospital" clip-path="url(#clip-Hospital)">
    <g id="user-3-line">
      <path id="Path_313" data-name="Path 313" d="M0,0H24V24H0Z" fill="none"/>
    </g>
    <g id="hospital-line" transform="translate(1 1)">
      <path id="Path_557" data-name="Path 557" d="M0,0H22V22H0Z" fill="none"/>
      <path id="Path_558" data-name="Path 558" d="M7.125,16.85V11.9h7v4.95H16.75V3.65H4.5v13.2Zm1.75,0h3.5v-3.3h-3.5Zm9.625,0h1.75V18.5H1V16.85H2.75V2.825A.851.851,0,0,1,3.625,2h14a.851.851,0,0,1,.875.825ZM9.75,6.95V5.3H11.5V6.95h1.75V8.6H11.5v1.65H9.75V8.6H8V6.95Z" transform="translate(0.375 0.75)" fill="#707070" stroke="#707070" stroke-width="0.2"/>
    </g>
  </g>
</svg>
