<svg xmlns="http://www.w3.org/2000/svg" xmlns:xlink="http://www.w3.org/1999/xlink" width="32" height="32" viewBox="0 0 32 32">
  <defs>
    <clipPath id="clip-Insite_Headcount">
      <rect width="32" height="32"/>
    </clipPath>
  </defs>
  <g id="Insite_Headcount" data-name="Insite Headcount" clip-path="url(#clip-Insite_Headcount)">
    <g id="Group_678" data-name="Group 678" transform="translate(-81 -121)">
      <rect id="Rectangle_249" data-name="Rectangle 249" width="32" height="32" rx="4" transform="translate(81 121)" fill="#95ebe3"/>
      <g id="x-men_1_" data-name="x-men (1)" transform="translate(85.267 129.533)">
        <g id="Group_671" data-name="Group 671" transform="translate(0 0)">
          <path id="Path_569" data-name="Path 569" d="M20.45,98.856a2.7,2.7,0,1,0-3.1,0,4.677,4.677,0,0,0-1.6.936,6.053,6.053,0,0,0-2.19-1.193,3.42,3.42,0,1,0-3.537,0,6.1,6.1,0,0,0-2.166,1.179,4.715,4.715,0,0,0-1.577-.917,2.7,2.7,0,1,0-3.1,0A4.739,4.739,0,0,0,0,103.338v.309a.02.02,0,0,0,.019.019H5.741a6.293,6.293,0,0,0-.051.791v.318a2.488,2.488,0,0,0,2.489,2.489H15.43a2.488,2.488,0,0,0,2.489-2.489v-.318a6.293,6.293,0,0,0-.051-.791h5.759a.02.02,0,0,0,.019-.019v-.309A4.757,4.757,0,0,0,20.45,98.856Zm-3.5-2.213a1.951,1.951,0,1,1,1.988,1.951h-.075A1.948,1.948,0,0,1,16.951,96.643ZM9.119,95.67a2.672,2.672,0,1,1,2.826,2.667h-.309A2.675,2.675,0,0,1,9.119,95.67Zm-6.344.973a1.951,1.951,0,1,1,1.988,1.951H4.688A1.951,1.951,0,0,1,2.774,96.643Zm3.1,6.269H.758A4,4,0,0,1,4.7,99.343h.056a3.956,3.956,0,0,1,2.55.95A6.143,6.143,0,0,0,5.872,102.913Zm11.29,1.862a1.743,1.743,0,0,1-1.74,1.74H8.169a1.743,1.743,0,0,1-1.74-1.74v-.318a5.374,5.374,0,0,1,5.207-5.366c.051,0,.108,0,.159,0s.108,0,.159,0a5.374,5.374,0,0,1,5.207,5.366Zm.557-1.862a6.127,6.127,0,0,0-1.418-2.6,3.975,3.975,0,0,1,2.573-.968h.056a4,4,0,0,1,3.939,3.57Z" transform="translate(0 -92.25)" stroke="#000" stroke-width="0.5"/>
        </g>
      </g>
    </g>
  </g>
</svg>
