<svg xmlns="http://www.w3.org/2000/svg" xmlns:xlink="http://www.w3.org/1999/xlink" width="1157" height="1114" viewBox="0 0 1157 1114">
  <defs>
    <clipPath id="clip-Illustrate_1">
      <rect width="1157" height="1114"/>
    </clipPath>
  </defs>
  <g id="Illustrate_1" data-name="Illustrate 1" clip-path="url(#clip-Illustrate_1)">
    <g id="Group_294" data-name="Group 294" transform="translate(-96.648 -78.268)">
      <g id="blob-shape_2_" data-name="blob-shape (2)" transform="translate(740.34 844.413) rotate(-151)" opacity="0.516">
        <path id="Path_461" data-name="Path 461" d="M497.474-152.873c77.07,59.2,123.165,161,110.627,249.523S524.208,260.232,469.632,336.03c-54.576,75.613-92.374,151.964-153.956,183.131-61.767,31.167-146.95,17.336-248.358.738s-218.857-35.962-271.589-104.014c-52.917-68.052-41.3-184.791-14.935-292.862,26.182-108.071,66.929-207.659,139.943-267.6,72.829-59.937,177.925-80.408,284.68-82.252C311.989-228.855,420.219-212.073,497.474-152.873Z" transform="translate(0)" fill="#fff"/>
      </g>
      <g id="Group_293" data-name="Group 293" transform="translate(427 3122)">
        <g id="undraw_social_distancing_2g0u" transform="translate(-106 -2851)">
          <ellipse id="Ellipse_4" data-name="Ellipse 4" cx="62.871" cy="128.282" rx="62.871" ry="128.282" transform="translate(18.589 89.62)" fill="#0E8190"/>
          <path id="Path_315" data-name="Path 315" d="M266.769,344.937c3.136-55.84,9.455-93.559,9.518-93.933l-1.371-.232c-.064.375-6.393,38.154-9.535,94.066-2.9,51.6-3.6,129.658,9.534,208.453l1.372-.228C263.177,474.4,263.875,396.466,266.769,344.937Z" transform="translate(-185.886 -125.705)" fill="#3f3d56"/>
          <rect id="Rectangle_188" data-name="Rectangle 188" width="64.475" height="1.391" transform="translate(80.808 222.312) rotate(-28.157)" fill="#3f3d56"/>
          <rect id="Rectangle_189" data-name="Rectangle 189" width="1.391" height="64.475" transform="translate(20.796 208.362) rotate(-61.858)" fill="#3f3d56"/>
          <ellipse id="Ellipse_5" data-name="Ellipse 5" cx="81.564" cy="166.424" rx="81.564" ry="166.424" transform="translate(435.849 0)" fill="#0E8190"/>
          <path id="Path_316" data-name="Path 316" d="M927.234,252.974c4.069-72.455,12.269-121.4,12.351-121.882l-1.3-.22c-.082.486-8.292,49.484-12.366,122.008-3.76,66.935-4.668,168.177,12.366,270.379l1.3-.216C922.573,420.967,923.479,319.837,927.234,252.974Z" transform="translate(-410.811 -84.844)" fill="#3f3d56"/>
          <rect id="Rectangle_190" data-name="Rectangle 190" width="83.646" height="1.319" transform="translate(516.683 172.361) rotate(-28.157)" fill="#3f3d56"/>
          <rect id="Rectangle_191" data-name="Rectangle 191" width="1.319" height="83.646" transform="translate(438.827 153.836) rotate(-61.858)" fill="#3f3d56"/>
          <ellipse id="Ellipse_6" data-name="Ellipse 6" cx="30.475" cy="62.181" rx="30.475" ry="62.181" transform="translate(388.668 253.563)" fill="#e6e6e6"/>
          <path id="Path_317" data-name="Path 317" d="M766.2,519.407l.18.337L793.937,505l-.622-1.163-27.055,14.481a464.015,464.015,0,0,1,4.621-46.419l-1.3-.22a481.579,481.579,0,0,0-5,54.151L737.3,511.222l-.622,1.163,27.554,14.748.329-.615c-1.033,26.235-.454,59.039,5.023,91.9l1.3-.216C764.91,582.372,764.779,546.61,766.2,519.407Z" transform="translate(-347.088 -200.985)" fill="#3f3d56"/>
          <path id="Path_318" data-name="Path 318" d="M719.243,723.281c-162.32-51.384-309.507-48.647-404.4-37.3-102.8,12.291-168.036,37.041-168.683,37.289l-.473-1.231c.649-.249,66.036-25.057,169-37.367A980.176,980.176,0,0,1,497.218,680a952.123,952.123,0,0,1,222.423,42.024Z" transform="translate(-145.688 -271.214)" fill="#3f3d56"/>
          <path id="Path_319" data-name="Path 319" d="M462.2,720.383s.455-9.539,9.787-8.43" transform="translate(-253.551 -282.837)" fill="#0f863d"/>
          <circle id="Ellipse_7" data-name="Ellipse 7" cx="4.671" cy="4.671" r="4.671" transform="translate(201.342 419.127)" fill="#f4241e"/>
          <rect id="Rectangle_192" data-name="Rectangle 192" width="1.318" height="9.229" transform="translate(205.253 431.662)" fill="#3f3d56"/>
          <path id="Path_320" data-name="Path 320" d="M720.2,723.383s.455-9.539,9.787-8.43" transform="translate(-341.473 -283.86)" fill="#0f863d"/>
          <circle id="Ellipse_8" data-name="Ellipse 8" cx="4.671" cy="4.671" r="4.671" transform="translate(371.419 421.104)" fill="#f4241e"/>
          <rect id="Rectangle_193" data-name="Rectangle 193" width="1.318" height="9.229" transform="translate(375.33 433.64)" fill="#3f3d56"/>
          <path id="Path_321" data-name="Path 321" d="M295.2,698.383s.455-9.539,9.787-8.43" transform="translate(-196.64 -275.34)" fill="#0f863d"/>
          <circle id="Ellipse_9" data-name="Ellipse 9" cx="4.671" cy="4.671" r="4.671" transform="translate(91.253 404.624)" fill="#f4241e"/>
          <rect id="Rectangle_194" data-name="Rectangle 194" width="1.318" height="9.229" transform="translate(95.164 417.16)" fill="#3f3d56"/>
          <path id="Path_322" data-name="Path 322" d="M404.2,679.383s.455-9.539,9.787-8.43" transform="translate(-233.785 -268.865)" fill="#0f863d"/>
          <circle id="Ellipse_10" data-name="Ellipse 10" cx="4.671" cy="4.671" r="4.671" transform="translate(163.107 392.099)" fill="#f4241e"/>
          <rect id="Rectangle_195" data-name="Rectangle 195" width="1.318" height="9.229" transform="translate(167.018 404.635)" fill="#3f3d56"/>
          <path id="Path_323" data-name="Path 323" d="M677.2,706.383s.455-9.539,9.787-8.43" transform="translate(-326.819 -278.066)" fill="#0f863d"/>
          <circle id="Ellipse_11" data-name="Ellipse 11" cx="4.671" cy="4.671" r="4.671" transform="translate(343.073 409.897)" fill="#f4241e"/>
          <rect id="Rectangle_196" data-name="Rectangle 196" width="1.318" height="9.229" transform="translate(346.984 422.433)" fill="#3f3d56"/>
          <path id="Path_324" data-name="Path 324" d="M975.513,681.78l27.132,40.23-25.261,25.261-3.275-6.549,5.614-13.1s-.936-12.163-4.21-15.437-17.776-22.922-17.776-22.922Z" transform="translate(-422.422 -272.585)" fill="#ffb8b8"/>
          <path id="Path_325" data-name="Path 325" d="M908.974,484.5s5.145,8.143-5.615,43.227c0,0,50.186,84.7,42.234,90.315s-29.473,18.037-35.086,14.294-46.441-130.528-46.441-130.528Z" transform="translate(-390.5 -205.357)" fill="#090366"/>
          <path id="Path_326" data-name="Path 326" d="M997.681,731.808l8.186,8.186c4.21,4.21,7.017,10.292-.935,15.437s-35.552,24.325-44.908,18.244,11.227-11.695,11.227-11.695,3.4-12.62,5.21-9.818,1.807,8.415,1.807,8.415Z" transform="translate(-422.371 -289.634)" fill="#2f2e41"/>
          <path id="Path_327" data-name="Path 327" d="M841.239,712.956s-14.969,27.6-14.969,30.875.936,12.63.936,12.63l-28.536,7.017-9.824-4.678,3.275-8.42S809.9,744.3,813.639,732.6s7.953-23.858,7.953-23.858Z" transform="translate(-364.867 -281.775)" fill="#ffb8b8"/>
          <circle id="Ellipse_12" data-name="Ellipse 12" cx="19.647" cy="19.647" r="19.647" transform="translate(474.033 117.29)" fill="#ffb8b8"/>
          <path id="Path_328" data-name="Path 328" d="M886.774,290.939l9.38,26.952,20.559-9.176s-14.034-21.519-14.034-24.325Z" transform="translate(-398.239 -137.161)" fill="#ffb8b8"/>
          <path id="Path_329" data-name="Path 329" d="M864.968,439.8h24.793s17.776,27.132,7.485,55.668a147.914,147.914,0,0,0-4.7,17.728c-3.591,16.643-7.167,39.188-10.831,59.9-5.147,29.1-10.468,54.591-16.254,55.054-11.695.936-34.437.78-34.437-3.9s15.233-140.014,15.233-140.014l3.275-5.614.619-24.452A14.749,14.749,0,0,1,864.968,439.8Z" transform="translate(-379.24 -190.121)" fill="#090369"/>
          <path id="Path_330" data-name="Path 330" d="M816.6,761.613s5.38,9.122,3.976,15.671-3.742,5.614-14.034,6.549-45.376.936-45.376-5.614,27.369-15.054,27.485-12.439,1.051,7.761-1.756,8.7-.234.234-.234.234Z" transform="translate(-355.435 -299.791)" fill="#2f2e41"/>
          <path id="Path_331" data-name="Path 331" d="M876.172,526.083s-2.035,33.23-15.608,23.338,5.289-27.763,5.289-27.763Z" transform="translate(-387.634 -218.018)" fill="#fff"/>
          <path id="Path_332" data-name="Path 332" d="M902.865,407.358a3.94,3.94,0,0,0,4.034-.477,4.133,4.133,0,0,0,1.53-2.607c1.962-11.313,4.351-42.674,5.727-58.532a66.85,66.85,0,0,0-6.971-35.405l-5.083-6.989a3.989,3.989,0,0,0-4.778-1.341s-15.868,16.464-15.927,17.1c-.249,2.73-2.138,8.779-11.981,18.622-10.771,10.771-10.831,20.171-10.592,22.8q.023.259.024.517a11.537,11.537,0,0,0,.474,3.48c4.511,14.223.978,31.251-4.695,49.025a4.009,4.009,0,0,0,1.616,4.35c1.657,1.127-.33-.545.261.179,3.91,4.791,9.537-1.886,15.973-9.173,2.242-2.538,4.784-5.415,7.778-8.41,4.118-4.118,11.986,5.279,15.644,5.279A16.987,16.987,0,0,1,902.865,407.358Z" transform="translate(-387.238 -143.058)" fill="#7ed5ea"/>
          <path id="Path_333" data-name="Path 333" d="M908.589,325.747s10.276,8.666,4.438,19.906-5.062,19.529-5.062,19.529-1.554,77.21-19.8,73.459l-8.3,22.909-14.986-5.409,8.666-20.207s-6.941-.432-4.913-5.161c1.424-3.322,9.1-39.367,13.541-60.53,1.883-8.968,3.185-15.264,3.185-15.264S891.267,323.409,908.589,325.747Z" transform="translate(-390.779 -151.213)" fill="#7ed5ea"/>
          <path id="Path_334" data-name="Path 334" d="M785.776,322.923,780,360.834l3.117-40.537Z" transform="translate(-265.811 -109.152)" opacity="0.2"/>
          <path id="Path_335" data-name="Path 335" d="M862,245.763s-3.3-25.706,23.648-17.277c0,0,19.249-3.532,25.561,20.545l6.392,25.239-3.115-1.7-1.452,3.174-5.048,1.278-2.16-4.287-1.045,5.206-41.344,4.122s18.517-10.951,18.811-30.577l-3.527,3.727Z" transform="translate(-389.752 -117.532)" fill="#2f2e41"/>
          <path id="Path_336" data-name="Path 336" d="M763.014,551.443l9.219-61.43-7.5,66.316Z" transform="translate(-260.023 -166.989)" opacity="0.2"/>
          <circle id="Ellipse_13" data-name="Ellipse 13" cx="10.396" cy="10.396" r="10.396" transform="translate(507.661 100.811)" fill="#2f2e41"/>
          <path id="Path_337" data-name="Path 337" d="M914.626,220.813a10.388,10.388,0,0,1,10.391-9.716c-.215-.027-.427-.06-.646-.074a10.4,10.4,0,1,0-1.334,20.749c.219.014.434.008.651.009a10.388,10.388,0,0,1-9.061-10.967Z" transform="translate(-407.281 -112.151)" fill="#2f2e41"/>
          <path id="Path_338" data-name="Path 338" d="M736.137,339.553l-9.147,49.023,11.855-54.146Z" transform="translate(-247.747 -113.969)" opacity="0.2"/>
          <path id="Path_339" data-name="Path 339" d="M878.922,282.931l-5.331,4.019c-5.49-2.763-9.608-9.155-11.1-15.257l5.809-2.931C868.752,274.986,873.17,279.123,878.922,282.931Z" transform="translate(-389.962 -131.836)" fill="#fff"/>
          <path id="Path_340" data-name="Path 340" d="M883.681,269.648H870.4a.443.443,0,1,1,0-.886h13.283a.443.443,0,0,1,0,.886Z" transform="translate(-392.508 -131.835)" fill="#fff"/>
          <path id="Path_341" data-name="Path 341" d="M886.518,285.22a.442.442,0,0,1-.411-.607l3.542-8.855a.442.442,0,1,1,.821.329l-3.542,8.855a.442.442,0,0,1-.411.278Z" transform="translate(-398.001 -134.125)" fill="#fff"/>
          <ellipse id="Ellipse_14" data-name="Ellipse 14" cx="3.249" cy="4.548" rx="3.249" ry="4.548" transform="translate(488.819 133.948)" fill="#ffb8b8"/>
          <path id="Path_342" data-name="Path 342" d="M399.191,214.745l34.6,7.918,14.619-27.572L418.824,183.54Z" transform="translate(-136.038 -62.548)" fill="#2f2e41"/>
          <path id="Path_343" data-name="Path 343" d="M559.35,513.244s-11.122,25.488-11.122,32.9c0,0,4.4,20.159,3.012,25.72l-4.866,10.427-10.2-4.171-2.78-27.8.463-44.488Z" transform="translate(-277.814 -212.624)" fill="#ffb9b9"/>
          <path id="Path_344" data-name="Path 344" d="M581.644,283.64s.927,15.293-.927,19.927,6.951,13.439,6.951,13.439l13.9-18.073s-9.268-9.268-6.951-19.464Z" transform="translate(-293.852 -135.484)" fill="#ffb9b9"/>
          <path id="Path_345" data-name="Path 345" d="M535.159,446.068s-13.439,25.024-.463,23.171,8.573-23.866,8.573-23.866" transform="translate(-276.331 -192.022)" fill="#e6e6e6"/>
          <path id="Path_346" data-name="Path 346" d="M400.741,347.909l4.4-43.793-.231-26.646-10.2,1.853v24.561l-2.085,44.72" transform="translate(-133.803 -94.558)" fill="#ffb9b9"/>
          <path id="Path_347" data-name="Path 347" d="M527.992,606.5l19.927-7.878,2.317,39.39s4.171,12.049,2.78,16.683c0,0,.927,7.878-1.39,8.341s-8.8,1.39-9.268.927-.463-1.854-.463-1.854-4.634,3.244-5.1,6.951c0,0-19.463,6.024-19.927.463s9.732-10.2,9.732-10.2l7.878-12.049Z" transform="translate(-272.176 -244.247)" fill="#2f2e41"/>
          <path id="Path_348" data-name="Path 348" d="M622.267,513.244s-11.122,25.488-11.122,32.9c0,0,4.4,20.159,3.012,25.72l-4.866,10.427-10.2-4.171-2.78-27.8.463-44.488Z" transform="translate(-299.255 -212.624)" fill="#ffb9b9"/>
          <path id="Path_349" data-name="Path 349" d="M591.964,606.5l19.927-7.878,2.317,39.39s4.171,12.049,2.781,16.683c0,0,.927,7.878-1.39,8.341s-8.8,1.39-9.268.927-.463-1.854-.463-1.854-4.634,3.244-5.1,6.951c0,0-19.463,6.024-19.927.463s9.732-10.2,9.732-10.2l7.878-12.049Z" transform="translate(-293.977 -244.247)" fill="#2f2e41"/>
          <path id="Path_350" data-name="Path 350" d="M596.452,261.964a14.83,14.83,0,0,1-29.3,3.245,14.367,14.367,0,0,1-.363-3.245,14.831,14.831,0,0,1,29.663,0Z" transform="translate(-289.193 -124.464)" fill="#ffb9b9"/>
          <path id="Path_351" data-name="Path 351" d="M573.891,311.529l11.508-5.976,5.175,4.122s12.512-.463,17.146,5.1,7.183,19.7,7.183,19.7-15.293-3.244-13.439,9.732l-2.781-7.415-2.549,6.256L565.086,353.7l-13.9-23.634s-9.268-2.78-12.512,3.707c0,0,.7-23.4,9.732-24.1,6.077-.467,10.659-.463,10.659-.463l5.1-.927,3.264-1.159Z" transform="translate(-279.611 -144.373)" fill="#151fb9"/>
          <path id="Path_352" data-name="Path 352" d="M590.711,389.189s24.329,72.988,17.378,83.183c0,0-25.951,12.976-77.854-4.634l21.085-81.793Q570.748,381.972,590.711,389.189Z" transform="translate(-276.736 -171.289)" fill="#151fb9"/>
          <path id="Path_353" data-name="Path 353" d="M600.054,363.207l6.847-23.53c-8.214-8.933-1.124-28.74-1.124-28.74l-9.911-2.124s-9.946,26.821-20.141,23.577-4.634-24.1-4.634-24.1l-9.268.927-4.171,16.22,3.012,34.525C573.226,358.885,586.4,360.139,600.054,363.207Z" transform="translate(-286.079 -145.306)" fill="#fbd55b"/>
          <path id="Path_354" data-name="Path 354" d="M490.371,347.909l3.244-44.025.927-26.414-10.195,1.853v24.561l-2.086,44.72" transform="translate(-164.347 -94.558)" fill="#ffb9b9"/>
          <path id="Path_355" data-name="Path 355" d="M624.789,446.068s-13.439,25.024-.463,23.171,8.573-23.866,8.573-23.866" transform="translate(-306.876 -192.022)" fill="#fff"/>
          <path id="Path_356" data-name="Path 356" d="M646.339,337.155s-1.647-23.8-15.421-23.717v27.523S641.242,334.838,646.339,337.155Z" transform="translate(-311.047 -147.06)" fill="#151fb9"/>
          <path id="Path_357" data-name="Path 357" d="M596.285,271.917a.378.378,0,0,1-.236-.674l7.563-6.051a.378.378,0,0,1,.473.591l-7.563,6.05A.378.378,0,0,1,596.285,271.917Z" transform="translate(-299.116 -130.591)" fill="#fff"/>
          <path id="Path_358" data-name="Path 358" d="M586.441,283.529c-.166.2-.333.408-.507.6a14.831,14.831,0,0,1-20.594-10.256l7.166-1.318,13.935,1.318C583.249,277.759,583.635,279.1,586.441,283.529Z" transform="translate(-288.699 -133.127)" fill="#fff"/>
          <path id="Path_359" data-name="Path 359" d="M565.761,237.071s-7.665,1.442-9.437,11a17.547,17.547,0,0,0-.15,4.881c.177,1.84-.08,5.726-4.075,10.3a100.188,100.188,0,0,0-7.275,9.343h0l8.009,2.132,3.578-13.269a67.878,67.878,0,0,1,7.932-18.231l.073-.118s2.66,7.107,9.79,8.082l-2.2-2.894s8.334,4.818,13.056,6.29a3.1,3.1,0,0,1,1,5.395l-.1.079C582.49,262.7,575.4,269,578.2,275.085s-.465,7.2-.465,7.2l6.019-2.29,2.755-1.18-.278,2.037,13.449.282s3.634-.022-2.821-9.723c0,0-1.558-3.638-.279-6.417a14.762,14.762,0,0,0,1.491-6.764C597.668,248.448,593.548,228.551,565.761,237.071Z" transform="translate(-281.708 -120.33)" fill="#2f2e41"/>
          <path id="Path_360" data-name="Path 360" d="M263.719,606.9s0,62.93-14.443,79.436c0,0-3.095,8.253-4.127,11.348a43.372,43.372,0,0,1-2.063,5.158v4.127s-27.854-3.095-30.949-10.316l5.158-6.19s1.032-1.032,0-4.127a2.119,2.119,0,0,1,2.063-3.095l7.221-16.506-1.032-68.088,5.158-93.879,44.36-2.063Z" transform="translate(-168.333 -211.559)" fill="#2f2e41"/>
          <path id="Path_361" data-name="Path 361" d="M220.217,801.04s7.221,21.664,0,22.7-70.151,2.063-69.12-6.19,21.664-7.221,21.664-7.221l21.664-13.411Z" transform="translate(-147.528 -311.821)" fill="#2f2e41"/>
          <path id="Path_362" data-name="Path 362" d="M314.584,505.833a46.811,46.811,0,0,1-6.19,27.854c-8.253,14.443-3.095,62.93-3.095,62.93l73.246,63.962s-14.443,24.759-19.6,23.728-86.658-67.057-86.658-67.057L240.306,509.96Z" transform="translate(-177.933 -212.626)" fill="#2f2e41"/>
          <path id="Path_363" data-name="Path 363" d="M435.579,736.429s22.164,5.5,19.17,12.15-35.813,60.357-42.231,55.067,5.5-22.165,5.5-22.165l.27-25.478Z" transform="translate(-235.973 -291.209)" fill="#2f2e41"/>
          <path id="Path_364" data-name="Path 364" d="M303.41,202.489a23.736,23.736,0,0,1-28.318,23.275,23.021,23.021,0,0,1-6.1-2.1,23.713,23.713,0,0,1-12.352-15.5,23.369,23.369,0,0,1-.689-5.674,23.728,23.728,0,0,1,47.457,0Z" transform="translate(-183.265 -101.164)" fill="#fad8d8"/>
          <path id="Path_365" data-name="Path 365" d="M306.868,227.453l-1.049,30.533-19.965,7.888s-1.958-31.264-4.722-33S306.868,227.453,306.868,227.453Z" transform="translate(-191.781 -117.758)" fill="#fad8d8"/>
          <path id="Path_366" data-name="Path 366" d="M263.185,277.555s27.854-27.854,35.076-26.823,7.221,4.127,7.221,6.19-2.063,3.095,0,4.127,4.127,0,4.127,3.095,18.569,34.044,12.38,68.088-13.411,50.55-10.316,69.12,1.032,22.7,1.032,22.7-77.373,6.19-78.4-1.032,3.095-3.095-2.063-8.253-3.095-5.158-3.095-8.253S251.837,277.555,263.185,277.555Z" transform="translate(-173.989 -125.681)" fill="#dd5f28"/>
          <path id="Path_367" data-name="Path 367" d="M290.012,499.468s-12.38,29.918-21.664,22.7,4.127-31.981,4.127-31.981Z" transform="translate(-186.373 -207.292)" fill="#fff"/>
          <path id="Path_368" data-name="Path 368" d="M321.089,294.468s24.238,2.775,15.214,47.3-44.1,96.1-44.1,96.1l-23.728-11.348,30.949-60.867L292.2,327.48S288.076,291.373,321.089,294.468Z" transform="translate(-187.532 -140.531)" fill="#f07038"/>
          <path id="Path_369" data-name="Path 369" d="M152.919,342.279l-34.045,56.74,3.1,3.095Z" transform="translate(-40.51 -116.643)" opacity="0.2"/>
          <path id="Path_370" data-name="Path 370" d="M183.738,382.389l-27.3,44.742h9.285Z" transform="translate(-53.31 -130.312)" opacity="0.2"/>
          <rect id="Rectangle_197" data-name="Rectangle 197" width="1.468" height="76.18" transform="translate(67.378 333.909) rotate(-20.877)" opacity="0.2"/>
          <circle id="Ellipse_15" data-name="Ellipse 15" cx="1.468" cy="1.468" r="1.468" transform="translate(87.875 154.602)" fill="#d0cde1"/>
          <line id="Line_2" data-name="Line 2" x1="12.474" y2="40.358" transform="translate(76.868 156.07)" fill="none"/>
          <path id="Path_371" data-name="Path 371" d="M261.914,338.514a.733.733,0,0,0,.7-.517l12.474-40.358a.734.734,0,1,0-1.4-.434l-12.474,40.359a.734.734,0,0,0,.7.95Z" transform="translate(-185.047 -141.352)" fill="#d0cde1"/>
          <path id="Path_372" data-name="Path 372" d="M274.6,234.176l-5.93,5.641c-6.107-3.073-12.005-11.354-13.67-18.141l7.78-3.26C263.287,225.338,268.2,229.94,274.6,234.176Z" transform="translate(-182.94 -114.678)" fill="#fff"/>
          <path id="Path_373" data-name="Path 373" d="M279.59,221.371a.493.493,0,0,1-.07,0l-13.79-1.97a.493.493,0,0,1,.138-.975l13.79,1.97a.493.493,0,0,1-.068.98Z" transform="translate(-186.453 -114.678)" fill="#fff"/>
          <path id="Path_374" data-name="Path 374" d="M283.73,237.609a.492.492,0,0,1-.429-.734l4.569-8.134a.492.492,0,1,1,.858.483l-4.569,8.134a.491.491,0,0,1-.429.251Z" transform="translate(-192.563 -118.111)" fill="#fff"/>
          <path id="Path_375" data-name="Path 375" d="M290.582,211.033c-1.921-1.016-4.152-1.225-6.231-1.856A16.3,16.3,0,0,1,273.52,190.9a9.326,9.326,0,0,0,.391-3.012c-.278-2.254-2.584-3.708-4.8-4.224s-4.564-.441-6.678-1.272a10.114,10.114,0,0,1-5.9-8.11,16.753,16.753,0,0,1,2.238-10.1l.8,2.3a8.525,8.525,0,0,0,2.61-3.9,5.377,5.377,0,0,1,4.1,3.294c1.282.756,1.467-2.349,2.883-2.807a2.544,2.544,0,0,1,1.768.436c2.854,1.331,6.169.193,9.23-.545a34.746,34.746,0,0,1,16.13-.019,19.307,19.307,0,0,1,9.533,4.9,22.873,22.873,0,0,1,4.459,7.663c2.7,6.806,4.491,14.17,3.6,21.439a30.346,30.346,0,0,1-7.151,16.078c-2.042,2.353-8.7,10.56-12.356,9.161C289.783,220.426,295.99,213.892,290.582,211.033Z" transform="translate(-183.425 -95.452)" fill="#2f2e41"/>
        </g>
      </g>
    </g>
  </g>
</svg>
