<svg xmlns="http://www.w3.org/2000/svg" xmlns:xlink="http://www.w3.org/1999/xlink" width="32" height="32" viewBox="0 0 32 32">
  <defs>
    <clipPath id="clip-Artboard_1">
      <rect width="32" height="32"/>
    </clipPath>
  </defs>
  <g id="Artboard_1" data-name="Artboard – 1" clip-path="url(#clip-Artboard_1)">
    <g id="Group_496" data-name="Group 496" transform="translate(-79 -119)">
      <rect id="Rectangle_246" data-name="Rectangle 246" width="30" height="30" rx="4" transform="translate(80 120)" fill="#e04b4b"/>
      <g id="group" transform="translate(87.079 128)">
        <g id="Group_329" data-name="Group 329" transform="translate(0 6.132)">
          <g id="Group_328" data-name="Group 328">
            <path id="Path_466" data-name="Path 466" d="M14.411,230.949H12.758a2.467,2.467,0,0,0-.65.087A2.475,2.475,0,0,0,9.9,229.68H6.981a2.475,2.475,0,0,0-2.205,1.356,2.467,2.467,0,0,0-.65-.087H2.473A2.476,2.476,0,0,0,0,233.422v2.642a1.486,1.486,0,0,0,1.484,1.484H15.4a1.486,1.486,0,0,0,1.484-1.484v-2.642A2.476,2.476,0,0,0,14.411,230.949Zm-9.9,1.2v4.405H1.484a.5.5,0,0,1-.495-.495v-2.642a1.486,1.486,0,0,1,1.484-1.484H4.126a1.479,1.479,0,0,1,.388.052C4.511,232.044,4.508,232.1,4.508,232.153Zm6.879,4.405H5.5v-4.405a1.486,1.486,0,0,1,1.484-1.484H9.9a1.486,1.486,0,0,1,1.484,1.484Zm4.508-.495a.5.5,0,0,1-.495.495H12.376v-4.405c0-.055,0-.109-.006-.163a1.481,1.481,0,0,1,.388-.052h1.653a1.486,1.486,0,0,1,1.484,1.484Z" transform="translate(0 -229.68)"/>
          </g>
        </g>
        <g id="Group_331" data-name="Group 331" transform="translate(1.102 2.73)">
          <g id="Group_330" data-name="Group 330">
            <path id="Path_467" data-name="Path 467" d="M35.612,126.5a2.2,2.2,0,1,0,2.2,2.2A2.2,2.2,0,0,0,35.612,126.5Zm0,3.406A1.208,1.208,0,1,1,36.82,128.7,1.21,1.21,0,0,1,35.612,129.91Z" transform="translate(-33.414 -126.504)"/>
          </g>
        </g>
        <g id="Group_333" data-name="Group 333" transform="translate(5.506)">
          <g id="Group_332" data-name="Group 332">
            <path id="Path_468" data-name="Path 468" d="M169.9,43.729a2.936,2.936,0,1,0,2.936,2.936A2.94,2.94,0,0,0,169.9,43.729Zm0,4.883a1.947,1.947,0,1,1,1.947-1.947A1.949,1.949,0,0,1,169.9,48.612Z" transform="translate(-166.962 -43.729)"/>
          </g>
        </g>
        <g id="Group_335" data-name="Group 335" transform="translate(11.387 2.73)">
          <g id="Group_334" data-name="Group 334">
            <path id="Path_469" data-name="Path 469" d="M347.492,126.5a2.2,2.2,0,1,0,2.2,2.2A2.2,2.2,0,0,0,347.492,126.5Zm0,3.406A1.208,1.208,0,1,1,348.7,128.7,1.21,1.21,0,0,1,347.492,129.91Z" transform="translate(-345.294 -126.504)"/>
          </g>
        </g>
      </g>
    </g>
  </g>
</svg>
