<svg xmlns="http://www.w3.org/2000/svg" xmlns:xlink="http://www.w3.org/1999/xlink" width="32" height="32" viewBox="0 0 32 32">
  <defs>
    <clipPath id="clip-Total_Teams_Headcounts">
      <rect width="32" height="32"/>
    </clipPath>
  </defs>
  <g id="Total_Teams_Headcounts" data-name="Total Teams Headcounts" clip-path="url(#clip-Total_Teams_Headcounts)">
    <g id="Group_686" data-name="Group 686" transform="translate(-81 -380)">
      <g id="Group_664" data-name="Group 664" transform="translate(81 380)">
        <rect id="Rectangle_249" data-name="Rectangle 249" width="32" height="32" rx="4" fill="#f8e596"/>
      </g>
      <g id="star_1_" data-name="star (1)" transform="translate(85.267 389.6)">
        <g id="Group_665" data-name="Group 665" transform="translate(17.067 1.6)">
          <path id="Path_563" data-name="Path 563" d="M20.133,17.267a2.133,2.133,0,1,1,2.133-2.133A2.14,2.14,0,0,1,20.133,17.267Zm0-3.2A1.067,1.067,0,1,0,21.2,15.133,1.008,1.008,0,0,0,20.133,14.067Z" transform="translate(-18 -13)" stroke="#000" stroke-width="0.5"/>
        </g>
        <g id="Group_666" data-name="Group 666" transform="translate(17.067 6.933)">
          <path id="Path_564" data-name="Path 564" d="M23.867,22.267a.5.5,0,0,1-.533-.533V20.667a1.64,1.64,0,0,0-1.6-1.6h-3.2a.533.533,0,0,1,0-1.067h3.2A2.641,2.641,0,0,1,24.4,20.667v1.067A.5.5,0,0,1,23.867,22.267Z" transform="translate(-18 -18)" stroke="#000" stroke-width="0.5"/>
        </g>
        <g id="Group_667" data-name="Group 667" transform="translate(2.133 1.6)">
          <path id="Path_565" data-name="Path 565" d="M4.133,17.267a2.133,2.133,0,1,1,2.133-2.133A2.14,2.14,0,0,1,4.133,17.267Zm0-3.2a1.067,1.067,0,1,0,0,2.133,1.067,1.067,0,1,0,0-2.133Z" transform="translate(-2 -13)" stroke="#000" stroke-width="0.5"/>
        </g>
        <g id="Group_668" data-name="Group 668" transform="translate(0 6.933)">
          <path id="Path_566" data-name="Path 566" d="M.533,22.267A.5.5,0,0,1,0,21.733V20.667A2.641,2.641,0,0,1,2.667,18h3.2a.533.533,0,1,1,0,1.067h-3.2a1.64,1.64,0,0,0-1.6,1.6v1.067A.5.5,0,0,1,.533,22.267Z" transform="translate(0 -18)" stroke="#000" stroke-width="0.5"/>
        </g>
        <g id="Group_669" data-name="Group 669" transform="translate(8.533 0)">
          <path id="Path_567" data-name="Path 567" d="M12.2,17.9a3.2,3.2,0,1,1,3.2-3.2A3.143,3.143,0,0,1,12.2,17.9Zm0-5.333A2.133,2.133,0,1,0,14.333,14.7,2.14,2.14,0,0,0,12.2,12.567Z" transform="translate(-9 -11.5)" stroke="#000" stroke-width="0.5"/>
        </g>
        <g id="Group_670" data-name="Group 670" transform="translate(5.867 8)">
          <path id="Path_568" data-name="Path 568" d="M17.7,24.333a.5.5,0,0,1-.533-.533V21.667a1.64,1.64,0,0,0-1.6-1.6h-6.4a1.64,1.64,0,0,0-1.6,1.6V23.8a.533.533,0,1,1-1.067,0V21.667A2.641,2.641,0,0,1,9.167,19h6.4a2.641,2.641,0,0,1,2.667,2.667V23.8A.5.5,0,0,1,17.7,24.333Z" transform="translate(-6.5 -19)" stroke="#000" stroke-width="0.5"/>
        </g>
      </g>
    </g>
  </g>
</svg>
