<svg xmlns="http://www.w3.org/2000/svg" xmlns:xlink="http://www.w3.org/1999/xlink" width="32" height="32" viewBox="0 0 32 32">
  <defs>
    <clipPath id="clip-Artboard_2">
      <rect width="32" height="32"/>
    </clipPath>
  </defs>
  <g id="Artboard_2" data-name="Artboard – 2" clip-path="url(#clip-Artboard_2)">
    <g id="Group_498" data-name="Group 498" transform="translate(-76 -600)">
      <rect id="Rectangle_249" data-name="Rectangle 249" width="30" height="30" rx="4" transform="translate(77 601)" fill="#f9d771" opacity="0.688"/>
      <g id="lineal" transform="translate(81 539.934)">
        <g id="Group_408" data-name="Group 408" transform="translate(16.16 74.665)">
          <g id="Group_407" data-name="Group 407">
            <path id="Path_506" data-name="Path 506" d="M395.177,228.812a6.022,6.022,0,0,0-2.118-.363.309.309,0,1,0,0,.617,5.329,5.329,0,0,1,1.842.3.309.309,0,0,0,.276-.552Z" transform="translate(-392.751 -228.449)"/>
          </g>
        </g>
        <g id="Group_410" data-name="Group 410" transform="translate(0 68.066)">
          <g id="Group_409" data-name="Group 409">
            <path id="Path_507" data-name="Path 507" d="M20.125,79.421l-1.275-.364a.129.129,0,0,1-.093-.124v-.425a2.319,2.319,0,0,0,.3-.242,2.27,2.27,0,0,0,.695-1.642v-.587l.123-.246a1.969,1.969,0,0,0,.207-.876v-1.59a.309.309,0,0,0-.309-.309H16.8a1.961,1.961,0,0,0-1.958,1.958v.018a1.637,1.637,0,0,0,.172.728l.158.316v.5a2.408,2.408,0,0,0,.99,1.947v.446c0,.069,0,.1-.255.17l-.622.178-1.8-.654a.308.308,0,0,0-.084-.236l-.575-.6V76.773c.061-.05.121-.1.179-.156a3.622,3.622,0,0,0,1.141-2.633v-.81a3.567,3.567,0,0,0,.33-1.5v-3.3a.309.309,0,0,0-.309-.309H9.548A2.952,2.952,0,0,0,6.6,71.014v.66a3.567,3.567,0,0,0,.33,1.5v.7a3.771,3.771,0,0,0,1.32,2.878v1.038l-.575.6a.308.308,0,0,0-.084.236l-1.9.69a1.618,1.618,0,0,0-.382.2l-.3-.149a2.357,2.357,0,0,0,1.182-.957.309.309,0,0,0,0-.276,5.482,5.482,0,0,1-.271-1.916C5.916,76,5.909,75.8,5.9,75.612a2.684,2.684,0,0,0-2.618-2.6,2.684,2.684,0,0,0-2.618,2.6c-.013.184-.02.39-.027.608a5.483,5.483,0,0,1-.271,1.916.309.309,0,0,0,0,.276,2.357,2.357,0,0,0,1.183.956l-.828.414A1.292,1.292,0,0,0,0,80.943v2.28a.309.309,0,1,0,.617,0v-2.28a.678.678,0,0,1,.377-.609l1.031-.516.359.341a1.3,1.3,0,0,0,1.789,0l.359-.341.336.168a1.625,1.625,0,0,0-.248.862v2.375a.309.309,0,0,0,.617,0V80.848A1.014,1.014,0,0,1,5.9,79.9l2-.728.833,1.25a.636.636,0,0,0,.468.281q.032,0,.064,0a.636.636,0,0,0,.451-.187l.508-.508v3.215a.309.309,0,1,0,.617,0V80.008l.508.508a.636.636,0,0,0,.451.187q.032,0,.064,0a.636.636,0,0,0,.468-.281l.833-1.25,2,.728a1.014,1.014,0,0,1,.666.95v2.375a.309.309,0,1,0,.617,0V80.848A1.631,1.631,0,0,0,16,79.719l.076-.022a1.693,1.693,0,0,0,.287-.1l.788.788v2.842a.309.309,0,1,0,.617,0V80.381l.782-.782a.735.735,0,0,0,.131.052l1.275.364a.684.684,0,0,1,.494.655v2.553a.309.309,0,1,0,.617,0V80.67A1.3,1.3,0,0,0,20.125,79.421ZM1.98,78.876a2.219,2.219,0,0,1-.99-.636,3.4,3.4,0,0,0,.176-.739,2.3,2.3,0,0,0,.815,1Zm1.768.835a.681.681,0,0,1-.939,0l-.287-.273a.639.639,0,0,0,.075-.3v-.329a2.295,2.295,0,0,0,1.363,0v.329a.639.639,0,0,0,.075.3Zm-.469-1.417a1.673,1.673,0,0,1-1.671-1.671.307.307,0,0,0-.359-.3l0-.079c.007-.212.013-.413.026-.585A2.291,2.291,0,0,1,1.9,74.217a1.917,1.917,0,0,1,2.756,0,2.291,2.291,0,0,1,.624,1.439c.012.172.019.372.026.584l0,.055a2.773,2.773,0,0,0-1.524-1.114A3.874,3.874,0,0,0,2.61,75a.309.309,0,0,0-.214.094l-.557.577a.309.309,0,1,0,.444.428l.463-.48a2.5,2.5,0,0,1,2.182,1.268A1.667,1.667,0,0,1,3.278,78.295Zm1.3.583v-.368A2.283,2.283,0,0,0,5.391,77.5a3.4,3.4,0,0,0,.176.737A2.229,2.229,0,0,1,4.577,78.877Zm2.97-5.006v-.766a.309.309,0,0,0-.031-.134,2.96,2.96,0,0,1-.3-1.3v-.66a2.334,2.334,0,0,1,2.331-2.331h4.311v2.991a2.96,2.96,0,0,1-.3,1.3.309.309,0,0,0-.031.134v.879a2.963,2.963,0,0,1-.946,2.183,3.071,3.071,0,0,1-.237.2l-.005,0a2.967,2.967,0,0,1-2,.6A3.057,3.057,0,0,1,7.546,73.871ZM9.284,80.08a.019.019,0,0,1-.017.006.02.02,0,0,1-.016-.009l-.96-1.44.309-.325,1.456,1Zm1.253-1.191L8.866,77.747v-.576a3.475,3.475,0,0,0,1.432.413q.122.008.243.008a3.575,3.575,0,0,0,1.668-.409v.564Zm1.286,1.188a.02.02,0,0,1-.016.009.019.019,0,0,1-.017-.006l-.772-.772,1.456-1,.309.325Zm5.635-.26-.7-.7a.847.847,0,0,0,.019-.183V78.8a2.164,2.164,0,0,0,.611.108h.071a2.292,2.292,0,0,0,.68-.1v.124a.738.738,0,0,0,.022.18Zm1.164-1.994a1.659,1.659,0,0,1-1.215.471,1.727,1.727,0,0,1-1.62-1.753v-.577a.308.308,0,0,0-.033-.138l-.191-.381a1.017,1.017,0,0,1-.107-.452v-.018A1.343,1.343,0,0,1,16.8,73.633H19.46v1.282a1.348,1.348,0,0,1-.142.6l-.156.312a.308.308,0,0,0-.033.138v.66A1.658,1.658,0,0,1,18.623,77.823Z" transform="translate(0 -68.066)"/>
          </g>
        </g>
        <g id="Group_412" data-name="Group 412" transform="translate(19.13 80.935)">
          <g id="Group_411" data-name="Group 411">
            <path id="Path_508" data-name="Path 508" d="M465.232,380.814a.309.309,0,0,0-.309.309v1.98a.309.309,0,0,0,.617,0v-1.98A.309.309,0,0,0,465.232,380.814Z" transform="translate(-464.923 -380.814)"/>
          </g>
        </g>
        <g id="Group_414" data-name="Group 414" transform="translate(1.32 81.342)">
          <g id="Group_413" data-name="Group 413">
            <path id="Path_509" data-name="Path 509" d="M32.386,390.728a.309.309,0,0,0-.309.309v1.572a.309.309,0,0,0,.617,0v-1.572A.309.309,0,0,0,32.386,390.728Z" transform="translate(-32.077 -390.728)"/>
          </g>
        </g>
        <g id="Group_416" data-name="Group 416" transform="translate(7.919 70.87)">
          <g id="Group_415" data-name="Group 415">
            <path id="Path_510" data-name="Path 510" d="M197.606,137.119c-1.167-1.167-3.609-.944-4.605-.794a.634.634,0,0,0-.541.631v.711a.309.309,0,1,0,.617,0v-.711a.02.02,0,0,1,.016-.021,9.749,9.749,0,0,1,2-.1,3.185,3.185,0,0,1,2.072.718.309.309,0,0,0,.436-.436Z" transform="translate(-192.46 -136.203)"/>
          </g>
        </g>
        <g id="Group_418" data-name="Group 418" transform="translate(6.599 81.594)">
          <g id="Group_417" data-name="Group 417">
            <path id="Path_511" data-name="Path 511" d="M160.693,396.853a.309.309,0,0,0-.309.309v1.32a.309.309,0,0,0,.617,0v-1.32A.309.309,0,0,0,160.693,396.853Z" transform="translate(-160.384 -396.853)"/>
          </g>
        </g>
        <g id="Group_420" data-name="Group 420" transform="translate(13.858 81.594)">
          <g id="Group_419" data-name="Group 419">
            <path id="Path_512" data-name="Path 512" d="M337.115,396.853a.309.309,0,0,0-.309.309v1.32a.309.309,0,0,0,.617,0v-1.32A.309.309,0,0,0,337.115,396.853Z" transform="translate(-336.806 -396.853)"/>
          </g>
        </g>
      </g>
    </g>
  </g>
</svg>
