<?xml version="1.0" encoding="UTF-8"?>
<!DOCTYPE svg PUBLIC "-//W3C//DTD SVG 1.1//EN" "http://www.w3.org/Graphics/SVG/1.1/DTD/svg11.dtd">
<!-- Creator: CorelDRAW -->
<svg xmlns="http://www.w3.org/2000/svg" xml:space="preserve" width="46.6808mm" height="59.1761mm" version="1.1" style="shape-rendering:geometricPrecision; text-rendering:geometricPrecision; image-rendering:optimizeQuality; fill-rule:evenodd; clip-rule:evenodd"
viewBox="0 0 1362.65 1727.4"
 xmlns:xlink="http://www.w3.org/1999/xlink"
 xmlns:xodm="http://www.corel.com/coreldraw/odm/2003">
 <defs>
  <style type="text/css">
   <![CDATA[
    .fil7 {fill:none}
    .fil6 {fill:#FFD859}
    .fil2 {fill:#F9B112}
    .fil4 {fill:#EC6A31}
    .fil3 {fill:#D42326}
    .fil5 {fill:#B02928}
    .fil0 {fill:#2B2B2A;fill-rule:nonzero}
    .fil1 {fill:#EC6A31;fill-rule:nonzero}
    .fil10 {fill:url(#id6)}
    .fil9 {fill:url(#id7)}
    .fil8 {fill:url(#id8)}
    .fil11 {fill:url(#id9)}
   ]]>
  </style>
      <clipPath id="id0">
       <path d="M539.63 782.07c-54.52,12.83 -100.49,48.53 -127,96.64l-212.52 0 0 -22.45c0,-70.13 56.87,-127.21 127.21,-127.21l11.76 0c0,21.38 42.76,60.51 42.76,60.51 0,0 42.76,-39.12 42.76,-60.51l11.97 0c42.55,0 79.96,20.95 103.05,53.03z"/>
      </clipPath>
      <clipPath id="id1">
       <path d="M470.95 590.18c0,-41.63 -33.74,-75.37 -75.37,-75.37 -41.63,0 -75.37,33.74 -75.37,75.37 0,41.63 33.74,75.37 75.37,75.37 41.63,0 75.37,-33.74 75.37,-75.37z"/>
      </clipPath>
      <clipPath id="id2">
       <path d="M1208.17 853.67l0 22.45 -255.71 0c-20.52,-37.2 -52.81,-66.92 -91.51,-84.45 21.81,-38.91 63.29,-65.21 110.96,-65.21l11.76 0c0,21.38 42.76,60.51 42.76,60.51 0,0 42.76,-39.13 42.76,-60.51l11.97 0c70.13,0 127,57.09 127,127.21z"/>
      </clipPath>
      <clipPath id="id3">
       <path d="M1090.36 590.18c0,-41.63 -33.74,-75.37 -75.37,-75.37 -41.63,0 -75.37,33.74 -75.37,75.37 0,41.63 33.74,75.37 75.37,75.37 41.63,0 75.37,-33.74 75.37,-75.37z"/>
      </clipPath>
      <clipPath id="id4">
       <path d="M965.31 984.51l0 34.85 -563.37 0 0 -34.85c0,-34.42 8.77,-66.92 24.37,-95.14 26.51,-48.11 72.48,-83.81 127,-96.64 14.54,-3.42 29.93,-5.34 45.54,-5.34l18.39 0c0,33.14 66.28,93.86 66.28,93.86 0,0 66.28,-60.72 66.28,-93.86l18.6 0c28.86,0 56.23,6.2 81.03,17.53 38.7,17.53 70.98,47.25 91.51,84.45 15.61,28.22 24.37,60.72 24.37,95.14z"/>
      </clipPath>
      <clipPath id="id5">
       <path d="M800.43 555.57c0,-64.52 -52.3,-116.83 -116.83,-116.83 -64.52,0 -116.82,52.3 -116.82,116.83 0,64.52 52.3,116.82 116.82,116.82 64.52,0 116.83,-52.3 116.83,-116.82z"/>
      </clipPath>
  <linearGradient id="id6" gradientUnits="userSpaceOnUse" x1="1164.76" y1="1165.93" x2="1251.98" y2="1165.93">
   <stop offset="0" style="stop-opacity:1; stop-color:#EC6A31"/>
   <stop offset="1" style="stop-opacity:1; stop-color:#A13327"/>
  </linearGradient>
  <linearGradient id="id7" gradientUnits="userSpaceOnUse" xlink:href="#id6" x1="1106.19" y1="1165.02" x2="1211.34" y2="1165.02">
  </linearGradient>
  <linearGradient id="id8" gradientUnits="userSpaceOnUse" x1="-0" y1="725.42" x2="1362.65" y2="725.42">
   <stop offset="0" style="stop-opacity:1; stop-color:#B02928"/>
   <stop offset="1" style="stop-opacity:1; stop-color:#E3753A"/>
  </linearGradient>
  <linearGradient id="id9" gradientUnits="userSpaceOnUse" x1="1272.58" y1="1107.28" x2="1210.66" y2="1196.58">
   <stop offset="0" style="stop-opacity:1; stop-color:#B02928"/>
   <stop offset="1" style="stop-opacity:1; stop-color:#DF6E38"/>
  </linearGradient>
 </defs>
 <g id="Layer_x0020_1">
  <metadata id="CorelCorpID_0Corel-Layer"/>
  <g id="_105553725029280">
   <g>
    <path class="fil0" d="M199.02 1630.97c10.57,2.95 18.76,8.23 24.56,15.86 5.8,7.62 8.71,17.16 8.71,28.59 0,15.77 -5.42,28.03 -16.25,36.78 -10.83,8.75 -25.95,13.13 -45.36,13.13l-79.54 0 0 -183.25 76.68 0c18.89,0 33.66,4.2 44.32,12.61 10.65,8.4 15.98,20.14 15.98,35.22 0,9.7 -2.56,18.11 -7.67,25.21 -5.11,7.11 -12.26,12.39 -21.44,15.86zm-81.62 -9.62l46.27 0c25.65,0 38.47,-9.7 38.47,-29.11 0,-9.7 -3.16,-16.89 -9.49,-21.57 -6.32,-4.68 -15.98,-7.02 -28.98,-7.02l-46.27 0 0 57.7zm50.43 82.4c13.34,0 23.13,-2.43 29.37,-7.28 6.24,-4.85 9.36,-12.39 9.36,-22.61 0,-10.39 -3.16,-18.15 -9.49,-23.26 -6.33,-5.11 -16.07,-7.67 -29.24,-7.67l-50.43 0 0 60.82 50.43 0zm96.43 21.57l0 -126.84 26.25 0 0 126.84 -26.25 0zm-1.82 -183.51l30.15 0 0 27.29 -30.15 0 0 -27.29zm141.92 75.64l-15.86 1.56c-12.48,1.21 -21.44,5.03 -26.9,11.44 -5.46,6.41 -8.19,14.55 -8.19,24.43l0 70.44 -26.25 0 0 -126.84 25.47 0 0 22.09c6.76,-14.9 20.54,-23.13 41.33,-24.69l8.58 -0.52 1.82 22.09zm17.93 107.87l0 -183.25 26.25 0 0 183.25 -26.25 0zm115.93 -129.96c16.98,0 29.59,4.24 37.82,12.74 8.23,8.49 12.35,21.4 12.35,38.73l0 78.5 -25.22 0 0 -21.06c-3.29,7.45 -8.19,13.13 -14.69,17.03 -6.5,3.9 -14.08,5.85 -22.74,5.85 -8.32,0 -15.94,-1.69 -22.87,-5.07 -6.93,-3.38 -12.35,-8.1 -16.24,-14.17 -3.9,-6.07 -5.85,-12.82 -5.85,-20.27 0,-9.19 2.38,-16.42 7.15,-21.71 4.77,-5.28 12.65,-9.05 23.65,-11.31 11,-2.25 26.12,-3.38 45.36,-3.38l5.98 0 0 -7.54c0,-9.7 -2.03,-16.72 -6.11,-21.05 -4.07,-4.33 -10.7,-6.5 -19.88,-6.5 -14.38,0 -28.76,4.42 -43.15,13.26l-7.8 -18.45c6.76,-4.68 14.95,-8.45 24.56,-11.31 9.62,-2.86 18.85,-4.29 27.68,-4.29zm-7.8 112.29c9.53,0 17.33,-3.25 23.39,-9.75 6.06,-6.5 9.1,-14.86 9.1,-25.08l0 -6.76 -4.68 0c-13.52,0 -23.91,0.61 -31.19,1.82 -7.28,1.21 -12.48,3.25 -15.59,6.11 -3.12,2.86 -4.68,6.97 -4.68,12.34 0,6.07 2.21,11.13 6.63,15.21 4.42,4.07 10.09,6.11 17.03,6.11z"/>
    <path class="fil1" d="M707.96 1727.4c-17.68,0 -33.05,-3.81 -46.14,-11.44 -13.08,-7.62 -23.13,-18.5 -30.15,-32.62 -7.02,-14.12 -10.53,-30.71 -10.53,-49.78 0,-19.06 3.51,-35.65 10.53,-49.77 7.02,-14.13 17.07,-24.96 30.15,-32.49 13.08,-7.54 28.46,-11.31 46.14,-11.31 12.48,0 24.09,1.95 34.83,5.85 10.75,3.9 19.84,9.49 27.29,16.76l-9.36 19.76c-8.49,-7.11 -16.94,-12.22 -25.34,-15.34 -8.4,-3.12 -17.46,-4.68 -27.16,-4.68 -19.06,0 -33.75,6.15 -44.06,18.46 -10.31,12.3 -15.47,29.89 -15.47,52.76 0,22.87 5.16,40.51 15.47,52.9 10.31,12.39 25,18.59 44.06,18.59 9.71,0 18.76,-1.56 27.16,-4.68 8.4,-3.12 16.85,-8.23 25.34,-15.34l9.36 19.76c-7.45,7.28 -16.55,12.86 -27.29,16.76 -10.74,3.9 -22.35,5.85 -34.83,5.85zm231.59 -2.08l-19.49 -45.23 -92.79 0 -19.49 45.23 -27.03 0 81.62 -183.25 22.35 0 81.62 183.25 -26.77 0zm-103.19 -66.54l74.6 0 -37.17 -86.82 -37.43 86.82zm302.55 66.54l-29.63 0 -31.19 -58.74c-3.46,-6.24 -7.58,-10.61 -12.34,-13.13 -4.77,-2.51 -11.05,-3.77 -18.85,-3.77l-30.15 0 0 75.64 -26.51 0 0 -183.25 77.98 0c20.27,0 35.74,4.5 46.4,13.52 10.66,9.01 15.98,22.18 15.98,39.51 0,14.03 -3.94,25.56 -11.83,34.57 -7.88,9.01 -19.11,14.73 -33.66,17.16 9.01,2.77 16.46,9.53 22.35,20.27l31.45 58.22zm-73.82 -97.21c13.52,0 23.52,-2.64 30.02,-7.93 6.5,-5.29 9.75,-13.47 9.75,-24.56 0,-11.09 -3.21,-19.19 -9.62,-24.3 -6.41,-5.11 -16.46,-7.67 -30.15,-7.67l-48.61 0 0 64.46 48.61 0zm104.49 97.21l0 -183.25 119.05 0 0 21.57 -92.79 0 0 57.7 87.6 0 0 21.83 -87.6 0 0 60.56 92.79 0 0 21.57 -119.05 0z"/>
   </g>
   <g>
    <g>
     <path class="fil2" d="M539.63 782.07c-54.52,12.83 -100.49,48.53 -127,96.64l-212.52 0 0 -22.45c0,-70.13 56.87,-127.21 127.21,-127.21l11.76 0c0,21.38 42.76,60.51 42.76,60.51 0,0 42.76,-39.12 42.76,-60.51l11.97 0c42.55,0 79.96,20.95 103.05,53.03z"/>
     <g style="clip-path:url(#id0)">
      <g>
       <path id="1" class="fil3" d="M356.81 500.65c59.86,-20.61 106.98,2.31 141.34,68.74 -80.31,22.08 -140.55,46.79 -180.73,74.14 -34.49,-65.08 -21.36,-112.71 39.39,-142.88z"/>
       <path class="fil4" d="M498.15 569.39c-27.78,113.14 -88.02,137.85 -180.73,74.14 48.49,-34.66 110.16,-56.76 180.73,-74.14z"/>
       <rect class="fil5" x="-715.51" y="190.68" width="298.96" height="200.94"/>
       <rect class="fil3" x="-374.04" y="190.68" width="298.96" height="200.94"/>
       <rect class="fil4" x="-32.56" y="190.68" width="298.96" height="200.94"/>
       <rect class="fil6" x="308.92" y="190.68" width="298.96" height="200.94"/>
       <path class="fil3" d="M332.07 1107.6l-173.78 -204.41c9.17,-120.93 67.49,-192 164.4,-211.63l253.88 414.88 -244.51 1.16z"/>
       <path class="fil4" d="M533.95 1044.35c-138.74,-236.55 -212.85,-353.23 -216.52,-352.01 210.47,2.33 333.27,28.85 368.39,79.55l0 270.32 -151.86 2.14z"/>
       <path class="fil3" d="M685.81 545.51c-50.08,-0.04 -94.86,3.69 -134.32,11.2 5.64,-81.33 50.41,-126.64 134.32,-135.93l0 124.73z"/>
       <path class="fil6" d="M685.81 545.51l0 -124.73c78.74,8.05 132.05,55.16 159.95,141.34 -53.04,-10.91 -106.36,-16.45 -159.95,-16.61z"/>
       <path class="fil5" d="M845.76 562.12c-48.14,-10.77 -101.46,-17.88 -159.95,-16.61l0 140.18c89.14,-10.25 142.46,-51.44 159.95,-123.57z"/>
       <path class="fil4" d="M685.81 685.69l0 -140.18c-49.34,-0.11 -94.11,3.63 -134.32,11.2 7.91,85.02 52.68,128.01 134.32,128.98z"/>
       <path class="fil5" d="M896.35 545.36l-210.54 226.53 0 335.71c75.99,0 113.99,0 113.99,0l289.44 -472.93c-41.98,-34.56 -99.8,-64.4 -192.89,-89.31z"/>
       <path class="fil6" d="M1031.5 488.74c-68.27,4.57 -99.34,7.82 -103.38,65.72 62.91,19.73 122.36,50.15 161.11,80.2 49.47,-71.41 21.09,-105.08 -57.73,-145.93z"/>
       <path class="fil3" d="M1266.29 820.09c-51.77,-66.85 -118.12,-121.2 -192.56,-164.4l-234.85 386.48 362.53 -5.04 64.88 -217.03z"/>
      </g>
     </g>
     <path class="fil7" d="M539.63 782.07c-54.52,12.83 -100.49,48.53 -127,96.64l-212.52 0 0 -22.45c0,-70.13 56.87,-127.21 127.21,-127.21l11.76 0c0,21.38 42.76,60.51 42.76,60.51 0,0 42.76,-39.12 42.76,-60.51l11.97 0c42.55,0 79.96,20.95 103.05,53.03z"/>
     <path class="fil2" d="M470.95 590.18c0,-41.63 -33.74,-75.37 -75.37,-75.37 -41.63,0 -75.37,33.74 -75.37,75.37 0,41.63 33.74,75.37 75.37,75.37 41.63,0 75.37,-33.74 75.37,-75.37z"/>
     <g style="clip-path:url(#id1)">
      <g>
       <path id="1" class="fil3" d="M356.81 500.65c59.86,-20.61 106.98,2.31 141.34,68.74 -80.31,22.08 -140.55,46.79 -180.73,74.14 -34.49,-65.08 -21.36,-112.71 39.39,-142.88z"/>
       <path class="fil4" d="M498.15 569.39c-27.78,113.14 -88.02,137.85 -180.73,74.14 48.49,-34.66 110.16,-56.76 180.73,-74.14z"/>
       <rect class="fil5" x="-715.51" y="190.68" width="298.96" height="200.94"/>
       <rect class="fil3" x="-374.04" y="190.68" width="298.96" height="200.94"/>
       <rect class="fil4" x="-32.56" y="190.68" width="298.96" height="200.94"/>
       <rect class="fil6" x="308.92" y="190.68" width="298.96" height="200.94"/>
       <path class="fil3" d="M332.07 1107.6l-173.78 -204.41c9.17,-120.93 67.49,-192 164.4,-211.63l253.88 414.88 -244.51 1.16z"/>
       <path class="fil4" d="M533.95 1044.35c-138.74,-236.55 -212.85,-353.23 -216.52,-352.01 210.47,2.33 333.27,28.85 368.39,79.55l0 270.32 -151.86 2.14z"/>
       <path class="fil3" d="M685.81 545.51c-50.08,-0.04 -94.86,3.69 -134.32,11.2 5.64,-81.33 50.41,-126.64 134.32,-135.93l0 124.73z"/>
       <path class="fil6" d="M685.81 545.51l0 -124.73c78.74,8.05 132.05,55.16 159.95,141.34 -53.04,-10.91 -106.36,-16.45 -159.95,-16.61z"/>
       <path class="fil5" d="M845.76 562.12c-48.14,-10.77 -101.46,-17.88 -159.95,-16.61l0 140.18c89.14,-10.25 142.46,-51.44 159.95,-123.57z"/>
       <path class="fil4" d="M685.81 685.69l0 -140.18c-49.34,-0.11 -94.11,3.63 -134.32,11.2 7.91,85.02 52.68,128.01 134.32,128.98z"/>
       <path class="fil5" d="M896.35 545.36l-210.54 226.53 0 335.71c75.99,0 113.99,0 113.99,0l289.44 -472.93c-41.98,-34.56 -99.8,-64.4 -192.89,-89.31z"/>
       <path class="fil6" d="M1031.5 488.74c-68.27,4.57 -99.34,7.82 -103.38,65.72 62.91,19.73 122.36,50.15 161.11,80.2 49.47,-71.41 21.09,-105.08 -57.73,-145.93z"/>
       <path class="fil3" d="M1266.29 820.09c-51.77,-66.85 -118.12,-121.2 -192.56,-164.4l-234.85 386.48 362.53 -5.04 64.88 -217.03z"/>
      </g>
     </g>
     <path class="fil7" d="M470.95 590.18c0,-41.63 -33.74,-75.37 -75.37,-75.37 -41.63,0 -75.37,33.74 -75.37,75.37 0,41.63 33.74,75.37 75.37,75.37 41.63,0 75.37,-33.74 75.37,-75.37z"/>
     <path class="fil2" d="M1208.17 853.67l0 22.45 -255.71 0c-20.52,-37.2 -52.81,-66.92 -91.51,-84.45 21.81,-38.91 63.29,-65.21 110.96,-65.21l11.76 0c0,21.38 42.76,60.51 42.76,60.51 0,0 42.76,-39.13 42.76,-60.51l11.97 0c70.13,0 127,57.09 127,127.21z"/>
     <g style="clip-path:url(#id2)">
      <g>
       <path id="1" class="fil3" d="M356.81 500.65c59.86,-20.61 106.98,2.31 141.34,68.74 -80.31,22.08 -140.55,46.79 -180.73,74.14 -34.49,-65.08 -21.36,-112.71 39.39,-142.88z"/>
       <path class="fil4" d="M498.15 569.39c-27.78,113.14 -88.02,137.85 -180.73,74.14 48.49,-34.66 110.16,-56.76 180.73,-74.14z"/>
       <rect class="fil5" x="-715.51" y="190.68" width="298.96" height="200.94"/>
       <rect class="fil3" x="-374.04" y="190.68" width="298.96" height="200.94"/>
       <rect class="fil4" x="-32.56" y="190.68" width="298.96" height="200.94"/>
       <rect class="fil6" x="308.92" y="190.68" width="298.96" height="200.94"/>
       <path class="fil3" d="M332.07 1107.6l-173.78 -204.41c9.17,-120.93 67.49,-192 164.4,-211.63l253.88 414.88 -244.51 1.16z"/>
       <path class="fil4" d="M533.95 1044.35c-138.74,-236.55 -212.85,-353.23 -216.52,-352.01 210.47,2.33 333.27,28.85 368.39,79.55l0 270.32 -151.86 2.14z"/>
       <path class="fil3" d="M685.81 545.51c-50.08,-0.04 -94.86,3.69 -134.32,11.2 5.64,-81.33 50.41,-126.64 134.32,-135.93l0 124.73z"/>
       <path class="fil6" d="M685.81 545.51l0 -124.73c78.74,8.05 132.05,55.16 159.95,141.34 -53.04,-10.91 -106.36,-16.45 -159.95,-16.61z"/>
       <path class="fil5" d="M845.76 562.12c-48.14,-10.77 -101.46,-17.88 -159.95,-16.61l0 140.18c89.14,-10.25 142.46,-51.44 159.95,-123.57z"/>
       <path class="fil4" d="M685.81 685.69l0 -140.18c-49.34,-0.11 -94.11,3.63 -134.32,11.2 7.91,85.02 52.68,128.01 134.32,128.98z"/>
       <path class="fil5" d="M896.35 545.36l-210.54 226.53 0 335.71c75.99,0 113.99,0 113.99,0l289.44 -472.93c-41.98,-34.56 -99.8,-64.4 -192.89,-89.31z"/>
       <path class="fil6" d="M1031.5 488.74c-68.27,4.57 -99.34,7.82 -103.38,65.72 62.91,19.73 122.36,50.15 161.11,80.2 49.47,-71.41 21.09,-105.08 -57.73,-145.93z"/>
       <path class="fil3" d="M1266.29 820.09c-51.77,-66.85 -118.12,-121.2 -192.56,-164.4l-234.85 386.48 362.53 -5.04 64.88 -217.03z"/>
      </g>
     </g>
     <path class="fil7" d="M1208.17 853.67l0 22.45 -255.71 0c-20.52,-37.2 -52.81,-66.92 -91.51,-84.45 21.81,-38.91 63.29,-65.21 110.96,-65.21l11.76 0c0,21.38 42.76,60.51 42.76,60.51 0,0 42.76,-39.13 42.76,-60.51l11.97 0c70.13,0 127,57.09 127,127.21z"/>
     <path class="fil2" d="M1090.36 590.18c0,-41.63 -33.74,-75.37 -75.37,-75.37 -41.63,0 -75.37,33.74 -75.37,75.37 0,41.63 33.74,75.37 75.37,75.37 41.63,0 75.37,-33.74 75.37,-75.37z"/>
     <g style="clip-path:url(#id3)">
      <g>
       <path id="1" class="fil3" d="M356.81 500.65c59.86,-20.61 106.98,2.31 141.34,68.74 -80.31,22.08 -140.55,46.79 -180.73,74.14 -34.49,-65.08 -21.36,-112.71 39.39,-142.88z"/>
       <path class="fil4" d="M498.15 569.39c-27.78,113.14 -88.02,137.85 -180.73,74.14 48.49,-34.66 110.16,-56.76 180.73,-74.14z"/>
       <rect class="fil5" x="-715.51" y="190.68" width="298.96" height="200.94"/>
       <rect class="fil3" x="-374.04" y="190.68" width="298.96" height="200.94"/>
       <rect class="fil4" x="-32.56" y="190.68" width="298.96" height="200.94"/>
       <rect class="fil6" x="308.92" y="190.68" width="298.96" height="200.94"/>
       <path class="fil3" d="M332.07 1107.6l-173.78 -204.41c9.17,-120.93 67.49,-192 164.4,-211.63l253.88 414.88 -244.51 1.16z"/>
       <path class="fil4" d="M533.95 1044.35c-138.74,-236.55 -212.85,-353.23 -216.52,-352.01 210.47,2.33 333.27,28.85 368.39,79.55l0 270.32 -151.86 2.14z"/>
       <path class="fil3" d="M685.81 545.51c-50.08,-0.04 -94.86,3.69 -134.32,11.2 5.64,-81.33 50.41,-126.64 134.32,-135.93l0 124.73z"/>
       <path class="fil6" d="M685.81 545.51l0 -124.73c78.74,8.05 132.05,55.16 159.95,141.34 -53.04,-10.91 -106.36,-16.45 -159.95,-16.61z"/>
       <path class="fil5" d="M845.76 562.12c-48.14,-10.77 -101.46,-17.88 -159.95,-16.61l0 140.18c89.14,-10.25 142.46,-51.44 159.95,-123.57z"/>
       <path class="fil4" d="M685.81 685.69l0 -140.18c-49.34,-0.11 -94.11,3.63 -134.32,11.2 7.91,85.02 52.68,128.01 134.32,128.98z"/>
       <path class="fil5" d="M896.35 545.36l-210.54 226.53 0 335.71c75.99,0 113.99,0 113.99,0l289.44 -472.93c-41.98,-34.56 -99.8,-64.4 -192.89,-89.31z"/>
       <path class="fil6" d="M1031.5 488.74c-68.27,4.57 -99.34,7.82 -103.38,65.72 62.91,19.73 122.36,50.15 161.11,80.2 49.47,-71.41 21.09,-105.08 -57.73,-145.93z"/>
       <path class="fil3" d="M1266.29 820.09c-51.77,-66.85 -118.12,-121.2 -192.56,-164.4l-234.85 386.48 362.53 -5.04 64.88 -217.03z"/>
      </g>
     </g>
     <path class="fil7" d="M1090.36 590.18c0,-41.63 -33.74,-75.37 -75.37,-75.37 -41.63,0 -75.37,33.74 -75.37,75.37 0,41.63 33.74,75.37 75.37,75.37 41.63,0 75.37,-33.74 75.37,-75.37z"/>
     <path class="fil5" d="M965.31 984.51l0 34.85 -563.37 0 0 -34.85c0,-34.42 8.77,-66.92 24.37,-95.14 26.51,-48.11 72.48,-83.81 127,-96.64 14.54,-3.42 29.93,-5.34 45.54,-5.34l18.39 0c0,33.14 66.28,93.86 66.28,93.86 0,0 66.28,-60.72 66.28,-93.86l18.6 0c28.86,0 56.23,6.2 81.03,17.53 38.7,17.53 70.98,47.25 91.51,84.45 15.61,28.22 24.37,60.72 24.37,95.14z"/>
     <g style="clip-path:url(#id4)">
      <g>
       <path id="1" class="fil3" d="M356.81 500.65c59.86,-20.61 106.98,2.31 141.34,68.74 -80.31,22.08 -140.55,46.79 -180.73,74.14 -34.49,-65.08 -21.36,-112.71 39.39,-142.88z"/>
       <path class="fil4" d="M498.15 569.39c-27.78,113.14 -88.02,137.85 -180.73,74.14 48.49,-34.66 110.16,-56.76 180.73,-74.14z"/>
       <rect class="fil5" x="-715.51" y="190.68" width="298.96" height="200.94"/>
       <rect class="fil3" x="-374.04" y="190.68" width="298.96" height="200.94"/>
       <rect class="fil4" x="-32.56" y="190.68" width="298.96" height="200.94"/>
       <rect class="fil6" x="308.92" y="190.68" width="298.96" height="200.94"/>
       <path class="fil3" d="M332.07 1107.6l-173.78 -204.41c9.17,-120.93 67.49,-192 164.4,-211.63l253.88 414.88 -244.51 1.16z"/>
       <path class="fil4" d="M533.95 1044.35c-138.74,-236.55 -212.85,-353.23 -216.52,-352.01 210.47,2.33 333.27,28.85 368.39,79.55l0 270.32 -151.86 2.14z"/>
       <path class="fil3" d="M685.81 545.51c-50.08,-0.04 -94.86,3.69 -134.32,11.2 5.64,-81.33 50.41,-126.64 134.32,-135.93l0 124.73z"/>
       <path class="fil6" d="M685.81 545.51l0 -124.73c78.74,8.05 132.05,55.16 159.95,141.34 -53.04,-10.91 -106.36,-16.45 -159.95,-16.61z"/>
       <path class="fil5" d="M845.76 562.12c-48.14,-10.77 -101.46,-17.88 -159.95,-16.61l0 140.18c89.14,-10.25 142.46,-51.44 159.95,-123.57z"/>
       <path class="fil4" d="M685.81 685.69l0 -140.18c-49.34,-0.11 -94.11,3.63 -134.32,11.2 7.91,85.02 52.68,128.01 134.32,128.98z"/>
       <path class="fil5" d="M896.35 545.36l-210.54 226.53 0 335.71c75.99,0 113.99,0 113.99,0l289.44 -472.93c-41.98,-34.56 -99.8,-64.4 -192.89,-89.31z"/>
       <path class="fil6" d="M1031.5 488.74c-68.27,4.57 -99.34,7.82 -103.38,65.72 62.91,19.73 122.36,50.15 161.11,80.2 49.47,-71.41 21.09,-105.08 -57.73,-145.93z"/>
       <path class="fil3" d="M1266.29 820.09c-51.77,-66.85 -118.12,-121.2 -192.56,-164.4l-234.85 386.48 362.53 -5.04 64.88 -217.03z"/>
      </g>
     </g>
     <path class="fil7" d="M965.31 984.51l0 34.85 -563.37 0 0 -34.85c0,-34.42 8.77,-66.92 24.37,-95.14 26.51,-48.11 72.48,-83.81 127,-96.64 14.54,-3.42 29.93,-5.34 45.54,-5.34l18.39 0c0,33.14 66.28,93.86 66.28,93.86 0,0 66.28,-60.72 66.28,-93.86l18.6 0c28.86,0 56.23,6.2 81.03,17.53 38.7,17.53 70.98,47.25 91.51,84.45 15.61,28.22 24.37,60.72 24.37,95.14z"/>
     <path class="fil5" d="M800.43 555.57c0,-64.52 -52.3,-116.83 -116.83,-116.83 -64.52,0 -116.82,52.3 -116.82,116.83 0,64.52 52.3,116.82 116.82,116.82 64.52,0 116.83,-52.3 116.83,-116.82z"/>
     <g style="clip-path:url(#id5)">
      <g>
       <path id="1" class="fil3" d="M356.81 500.65c59.86,-20.61 106.98,2.31 141.34,68.74 -80.31,22.08 -140.55,46.79 -180.73,74.14 -34.49,-65.08 -21.36,-112.71 39.39,-142.88z"/>
       <path class="fil4" d="M498.15 569.39c-27.78,113.14 -88.02,137.85 -180.73,74.14 48.49,-34.66 110.16,-56.76 180.73,-74.14z"/>
       <rect class="fil5" x="-715.51" y="190.68" width="298.96" height="200.94"/>
       <rect class="fil3" x="-374.04" y="190.68" width="298.96" height="200.94"/>
       <rect class="fil4" x="-32.56" y="190.68" width="298.96" height="200.94"/>
       <rect class="fil6" x="308.92" y="190.68" width="298.96" height="200.94"/>
       <path class="fil3" d="M332.07 1107.6l-173.78 -204.41c9.17,-120.93 67.49,-192 164.4,-211.63l253.88 414.88 -244.51 1.16z"/>
       <path class="fil4" d="M533.95 1044.35c-138.74,-236.55 -212.85,-353.23 -216.52,-352.01 210.47,2.33 333.27,28.85 368.39,79.55l0 270.32 -151.86 2.14z"/>
       <path class="fil3" d="M685.81 545.51c-50.08,-0.04 -94.86,3.69 -134.32,11.2 5.64,-81.33 50.41,-126.64 134.32,-135.93l0 124.73z"/>
       <path class="fil6" d="M685.81 545.51l0 -124.73c78.74,8.05 132.05,55.16 159.95,141.34 -53.04,-10.91 -106.36,-16.45 -159.95,-16.61z"/>
       <path class="fil5" d="M845.76 562.12c-48.14,-10.77 -101.46,-17.88 -159.95,-16.61l0 140.18c89.14,-10.25 142.46,-51.44 159.95,-123.57z"/>
       <path class="fil4" d="M685.81 685.69l0 -140.18c-49.34,-0.11 -94.11,3.63 -134.32,11.2 7.91,85.02 52.68,128.01 134.32,128.98z"/>
       <path class="fil5" d="M896.35 545.36l-210.54 226.53 0 335.71c75.99,0 113.99,0 113.99,0l289.44 -472.93c-41.98,-34.56 -99.8,-64.4 -192.89,-89.31z"/>
       <path class="fil6" d="M1031.5 488.74c-68.27,4.57 -99.34,7.82 -103.38,65.72 62.91,19.73 122.36,50.15 161.11,80.2 49.47,-71.41 21.09,-105.08 -57.73,-145.93z"/>
       <path class="fil3" d="M1266.29 820.09c-51.77,-66.85 -118.12,-121.2 -192.56,-164.4l-234.85 386.48 362.53 -5.04 64.88 -217.03z"/>
      </g>
     </g>
     <path class="fil7" d="M800.43 555.57c0,-64.52 -52.3,-116.83 -116.83,-116.83 -64.52,0 -116.82,52.3 -116.82,116.83 0,64.52 52.3,116.82 116.82,116.82 64.52,0 116.83,-52.3 116.83,-116.82z"/>
    </g>
    <g>
     <path class="fil8" d="M712.48 0c-2.56,31.09 -38.08,80.76 -97.77,94.48 -620.59,142.64 -630.93,1155.36 -1.59,1076.18 183.3,-22.52 304.1,-17.15 362.4,16.11 -1.72,31.23 -26.8,44.38 -75.25,39.45 -33.96,-7.52 -62.82,-6.4 -86.57,3.37 -21.34,11.36 -27.48,25.23 -18.42,41.59 23.3,28.7 77.71,32.04 163.24,10.01 166.68,-61.44 281,-92.72 342.98,-93.83 63.04,-1.7 83.21,30.05 32.55,63.15 -116.05,26.73 -208.75,91.35 -296.39,126.14 -172,65.31 -346.44,92.8 -501.72,60.87 -751.78,-149.79 -730.29,-1242.28 176.55,-1437.52z"/>
     <path class="fil9" d="M1208.09 1130.21l-46.63 76.51c-12.11,3.46 -36.2,11.43 -55.27,15.72l68.91 -112.97c15.64,-4.93 46.26,-0.71 32.99,20.75z"/>
     <path class="fil10" d="M1164.76 1205.76l45.43 -69.45c12.28,-25.52 98.23,-2.46 -19.41,61.88 -5.33,2.91 -18.39,5.24 -26.02,7.57z"/>
     <path class="fil11" d="M1202.17 1195.41c26.82,-14.3 48.22,-32.52 57.14,-51.52 52.01,-19.3 57.77,35.53 -57.14,51.52z"/>
    </g>
   </g>
  </g>
 </g>
</svg>
