<svg width="240" height="60" viewBox="0 0 240 60" fill="none" xmlns="http://www.w3.org/2000/svg">
<path d="M35.5 1.5V31.4688C35.5 36.4479 33.9375 40.3854 30.8125 43.2812C27.7083 46.1771 23.4583 47.625 18.0625 47.625C12.75 47.625 8.53125 46.2188 5.40625 43.4062C2.28125 40.5938 0.6875 36.7292 0.625 31.8125V1.5H10V31.5312C10 34.5104 10.7083 36.6875 12.125 38.0625C13.5625 39.4167 15.5417 40.0938 18.0625 40.0938C23.3333 40.0938 26.0104 37.3229 26.0938 31.7812V1.5H35.5ZM60.1562 31.1562H42.5625V23.875H60.1562V31.1562ZM91.5938 35.0625C91.5938 33.2917 90.9688 31.9375 89.7188 31C88.4688 30.0417 86.2188 29.0417 82.9688 28C79.7188 26.9375 77.1458 25.8958 75.25 24.875C70.0833 22.0833 67.5 18.3229 67.5 13.5938C67.5 11.1354 68.1875 8.94792 69.5625 7.03125C70.9583 5.09375 72.9479 3.58333 75.5312 2.5C78.1354 1.41667 81.0521 0.875 84.2812 0.875C87.5312 0.875 90.4271 1.46875 92.9688 2.65625C95.5104 3.82292 97.4792 5.47917 98.875 7.625C100.292 9.77083 101 12.2083 101 14.9375H91.625C91.625 12.8542 90.9688 11.2396 89.6562 10.0938C88.3438 8.92708 86.5 8.34375 84.125 8.34375C81.8333 8.34375 80.0521 8.83333 78.7812 9.8125C77.5104 10.7708 76.875 12.0417 76.875 13.625C76.875 15.1042 77.6146 16.3438 79.0938 17.3438C80.5938 18.3438 82.7917 19.2812 85.6875 20.1562C91.0208 21.7604 94.9062 23.75 97.3438 26.125C99.7812 28.5 101 31.4583 101 35C101 38.9375 99.5104 42.0312 96.5312 44.2812C93.5521 46.5104 89.5417 47.625 84.5 47.625C81 47.625 77.8125 46.9896 74.9375 45.7188C72.0625 44.4271 69.8646 42.6667 68.3438 40.4375C66.8438 38.2083 66.0938 35.625 66.0938 32.6875H75.5C75.5 37.7083 78.5 40.2188 84.5 40.2188C86.7292 40.2188 88.4688 39.7708 89.7188 38.875C90.9688 37.9583 91.5938 36.6875 91.5938 35.0625ZM137.219 30.4062C137.219 35.6146 136.031 39.7917 133.656 42.9375C131.302 46.0625 128.115 47.625 124.094 47.625C120.677 47.625 117.917 46.4375 115.812 44.0625V60H106.781V13.1875H115.156L115.469 16.5C117.656 13.875 120.51 12.5625 124.031 12.5625C128.198 12.5625 131.438 14.1042 133.75 17.1875C136.062 20.2708 137.219 24.5208 137.219 29.9375V30.4062ZM128.188 29.75C128.188 26.6042 127.625 24.1771 126.5 22.4688C125.396 20.7604 123.781 19.9062 121.656 19.9062C118.823 19.9062 116.875 20.9896 115.812 23.1562V37C116.917 39.2292 118.885 40.3438 121.719 40.3438C126.031 40.3438 128.188 36.8125 128.188 29.75ZM162.438 47C162.021 46.1875 161.719 45.1771 161.531 43.9688C159.344 46.4062 156.5 47.625 153 47.625C149.688 47.625 146.938 46.6667 144.75 44.75C142.583 42.8333 141.5 40.4167 141.5 37.5C141.5 33.9167 142.823 31.1667 145.469 29.25C148.135 27.3333 151.979 26.3646 157 26.3438H161.156V24.4062C161.156 22.8438 160.75 21.5938 159.938 20.6562C159.146 19.7188 157.885 19.25 156.156 19.25C154.635 19.25 153.438 19.6146 152.562 20.3438C151.708 21.0729 151.281 22.0729 151.281 23.3438H142.25C142.25 21.3854 142.854 19.5729 144.062 17.9062C145.271 16.2396 146.979 14.9375 149.188 14C151.396 13.0417 153.875 12.5625 156.625 12.5625C160.792 12.5625 164.094 13.6146 166.531 15.7188C168.99 17.8021 170.219 20.7396 170.219 24.5312V39.1875C170.24 42.3958 170.688 44.8229 171.562 46.4688V47H162.438ZM154.969 40.7188C156.302 40.7188 157.531 40.4271 158.656 39.8438C159.781 39.2396 160.615 38.4375 161.156 37.4375V31.625H157.781C153.26 31.625 150.854 33.1875 150.562 36.3125L150.531 36.8438C150.531 37.9688 150.927 38.8958 151.719 39.625C152.51 40.3542 153.594 40.7188 154.969 40.7188ZM191.219 40.3438C192.885 40.3438 194.24 39.8854 195.281 38.9688C196.323 38.0521 196.865 36.8333 196.906 35.3125H205.375C205.354 37.6042 204.729 39.7083 203.5 41.625C202.271 43.5208 200.583 45 198.438 46.0625C196.312 47.1042 193.958 47.625 191.375 47.625C186.542 47.625 182.729 46.0938 179.938 43.0312C177.146 39.9479 175.75 35.6979 175.75 30.2812V29.6875C175.75 24.4792 177.135 20.3229 179.906 17.2188C182.677 14.1146 186.479 12.5625 191.312 12.5625C195.542 12.5625 198.927 13.7708 201.469 16.1875C204.031 18.5833 205.333 21.7812 205.375 25.7812H196.906C196.865 24.0312 196.323 22.6146 195.281 21.5312C194.24 20.4271 192.865 19.875 191.156 19.875C189.052 19.875 187.458 20.6458 186.375 22.1875C185.312 23.7083 184.781 26.1875 184.781 29.625V30.5625C184.781 34.0417 185.312 36.5417 186.375 38.0625C187.438 39.5833 189.052 40.3438 191.219 40.3438ZM226.094 47.625C221.135 47.625 217.094 46.1042 213.969 43.0625C210.865 40.0208 209.312 35.9688 209.312 30.9062V30.0312C209.312 26.6354 209.969 23.6042 211.281 20.9375C212.594 18.25 214.448 16.1875 216.844 14.75C219.26 13.2917 222.01 12.5625 225.094 12.5625C229.719 12.5625 233.354 14.0208 236 16.9375C238.667 19.8542 240 23.9896 240 29.3438V33.0312H218.469C218.76 35.2396 219.635 37.0104 221.094 38.3438C222.573 39.6771 224.438 40.3438 226.688 40.3438C230.167 40.3438 232.885 39.0833 234.844 36.5625L239.281 41.5312C237.927 43.4479 236.094 44.9479 233.781 46.0312C231.469 47.0938 228.906 47.625 226.094 47.625ZM225.062 19.875C223.271 19.875 221.812 20.4792 220.688 21.6875C219.583 22.8958 218.875 24.625 218.562 26.875H231.125V26.1562C231.083 24.1562 230.542 22.6146 229.5 21.5312C228.458 20.4271 226.979 19.875 225.062 19.875Z" fill="black"/>
</svg>
