<svg width="26" height="26" viewBox="0 0 26 26" fill="none" xmlns="http://www.w3.org/2000/svg">
<path d="M0 11.7813C0 13.2017 1.15121 14.3529 2.57105 14.3529H4.13105V11.4492H0V11.7813Z" fill="#B32328"/>
<path d="M5.6543 11.4492H20.3534V14.3529H5.6543V11.4492Z" fill="#B32328"/>
<path d="M0 1.57178H26V4.04838H0V1.57178Z" fill="#B32328"/>
<path d="M0 9.92577H26V5.57178H0V9.92577ZM22.9531 7.00533H24.4766V8.52877H22.9531V7.00533ZM19.7006 7.00533H21.224V8.52877H19.7006V7.00533Z" fill="#B32328"/>
<path d="M21.877 14.3529H23.437C24.8568 14.3529 25.9999 13.2017 25.9999 11.7813V11.4492H21.877V14.3529Z" fill="#B32328"/>
<path d="M8.83242 21.0321C8.83242 21.5344 8.42383 21.943 7.9216 21.943C7.41938 21.943 7.01074 21.5344 7.01074 21.0321H5.4873C5.4873 22.3744 6.5793 23.4664 7.9216 23.4664C9.26391 23.4664 10.3559 22.3744 10.3559 21.0321V16.4424H8.83242V21.0321Z" fill="#B32328"/>
<path d="M18.0779 21.943C17.5756 21.943 17.167 21.5344 17.167 21.0321V16.4424H15.6436V21.0321C15.6436 22.3744 16.7356 23.4664 18.0779 23.4664C19.4201 23.4664 20.5121 22.3744 20.5121 21.0321H18.9887C18.9887 21.5344 18.5801 21.943 18.0779 21.943Z" fill="#B32328"/>
<path d="M12.2422 16.4419H13.7656V24.4278H12.2422V16.4419Z" fill="#B32328"/>
</svg>
