<svg width="26" height="26" viewBox="0 0 26 26" fill="none" xmlns="http://www.w3.org/2000/svg">
<path d="M22.7891 6.12939L21.1445 7.77391C21.9571 9.34037 22.4251 11.1149 22.4251 13.0064C22.4251 14.8979 21.9571 16.6658 21.1446 18.2389L22.7046 19.7989C23.9591 17.7839 24.7001 15.4244 24.7001 12.8894C24.7001 10.4064 23.9916 8.09889 22.7891 6.12939Z" fill="#B32328"/>
<path d="M17.8163 7.41651L10.3998 0H9.09986V9.86047L3.13932 3.9L1.2998 5.73952L8.56032 13L1.2998 20.2605L3.13932 22.1L9.0998 16.1395V26H10.3998L17.8163 18.5835L12.2393 13L17.8163 7.41651ZM11.6998 4.97902L14.1438 7.42304L11.6998 9.86053V4.97902ZM14.1438 18.5835L11.6998 21.021V16.133L14.1438 18.5835Z" fill="#B32328"/>
<path d="M15.9121 13.0128L18.9281 16.0288C19.2921 15.0862 19.5001 14.0658 19.5001 12.9997C19.5001 11.9402 19.2986 10.9262 18.9411 9.99023L15.9121 13.0128Z" fill="#B32328"/>
</svg>
