<?xml version="1.0" standalone="no"?>
<!DOCTYPE svg PUBLIC "-//W3C//DTD SVG 20010904//EN"
 "http://www.w3.org/TR/2001/REC-SVG-20010904/DTD/svg10.dtd">
<svg version="1.0" xmlns="http://www.w3.org/2000/svg"
 width="157.000000pt" height="157.000000pt" viewBox="0 0 157.000000 157.000000"
 preserveAspectRatio="xMidYMid meet">

<g transform="translate(0.000000,157.000000) scale(0.100000,-0.100000)"
fill="#000000" stroke="none">
<path d="M714 1536 c-37 -37 -43 -72 -21 -116 11 -22 10 -27 -9 -42 -34 -27
-54 -81 -54 -142 0 -55 0 -56 -29 -56 -16 0 -39 -8 -52 -19 -23 -18 -23 -18
-40 13 -14 27 -15 34 -3 51 24 34 17 91 -15 127 -23 26 -37 33 -68 33 -51 0
-88 -25 -103 -70 -10 -30 -9 -41 7 -73 17 -35 17 -39 1 -72 -15 -29 -18 -63
-18 -194 0 -144 -2 -162 -21 -193 l-21 -34 -19 31 c-18 28 -18 33 -4 53 8 12
15 39 15 60 0 113 -169 136 -201 27 -9 -31 -8 -43 6 -73 15 -32 15 -38 1 -66
-13 -24 -16 -64 -16 -191 0 -155 -1 -162 -25 -198 -21 -31 -25 -48 -25 -109 0
-63 3 -74 22 -87 12 -9 30 -16 40 -16 16 0 18 -10 18 -74 0 -98 8 -106 105
-106 93 0 105 13 105 112 l0 68 130 0 130 0 0 -65 c0 -57 3 -69 25 -90 24 -25
26 -25 210 -25 184 0 186 0 210 25 22 21 25 33 25 90 l0 65 130 0 130 0 0 -68
c0 -99 12 -112 105 -112 97 0 105 8 105 106 0 64 2 74 18 74 10 0 28 7 40 16
19 13 22 24 22 87 0 61 -4 78 -25 109 -24 36 -25 43 -25 193 0 113 -4 165 -14
190 -13 31 -13 39 0 72 32 75 -14 143 -96 143 -80 0 -130 -93 -85 -157 14 -20
14 -25 -4 -53 l-19 -31 -21 34 c-19 31 -21 49 -21 193 0 131 -3 165 -18 194
-16 33 -16 37 0 70 36 72 -12 145 -95 145 -31 0 -45 -7 -68 -33 -32 -36 -39
-93 -15 -127 12 -17 11 -24 -3 -51 -17 -31 -17 -31 -40 -13 -13 11 -36 19 -52
19 -29 0 -29 1 -29 56 0 64 -22 118 -56 141 -22 14 -22 17 -9 36 42 60 -14
157 -90 157 -29 0 -45 -8 -71 -34z m106 -36 c11 -11 20 -27 20 -35 0 -8 -9
-24 -20 -35 -11 -11 -27 -20 -35 -20 -8 0 -24 9 -35 20 -11 11 -20 27 -20 35
0 8 9 24 20 35 11 11 27 20 35 20 8 0 24 -9 35 -20z m36 -174 c31 -31 34 -40
34 -90 l0 -56 -105 0 -105 0 0 56 c0 50 3 59 34 90 26 26 42 34 71 34 29 0 45
-8 71 -34z m-393 -17 c28 -44 -25 -95 -72 -69 -24 12 -29 58 -9 78 17 17 68
11 81 -9z m725 9 c19 -19 15 -66 -7 -78 -41 -21 -81 0 -81 44 0 29 18 46 50
46 14 0 31 -5 38 -12z m-736 -155 c13 -11 18 -30 18 -65 0 -42 -7 -58 -50
-120 l-50 -71 0 121 c0 96 3 124 16 136 20 21 43 20 66 -1z m730 0 c15 -14 18
-33 18 -136 l0 -121 -50 73 c-42 61 -50 80 -50 119 0 70 40 103 82 65z m-145
-113 c91 -132 468 -692 471 -701 2 -5 -101 -9 -242 -9 l-246 0 0 38 c-1 70
-53 157 -114 189 -16 8 -24 18 -19 22 24 15 53 78 53 116 0 161 -216 217 -291
75 -25 -46 -24 -107 2 -150 12 -19 26 -38 30 -41 5 -3 -7 -16 -28 -30 -51 -33
-95 -107 -101 -169 l-5 -50 -244 0 c-192 0 -244 3 -240 13 2 6 63 98 134 202
71 105 186 274 257 378 l127 187 204 0 204 0 48 -70z m-845 -127 c22 -20 23
-46 2 -67 -24 -24 -61 -20 -80 9 -15 23 -15 27 0 50 19 29 51 32 78 8z m1264
-8 c15 -23 15 -27 0 -50 -19 -29 -56 -33 -80 -9 -21 20 -20 43 1 66 23 26 59
23 79 -7z m-600 -139 c45 -45 47 -92 5 -138 -25 -28 -36 -33 -75 -33 -58 0
-95 33 -103 93 -5 37 -2 45 30 77 48 48 95 49 143 1z m-656 -15 c23 -44 12
-89 -42 -169 l-53 -77 -3 109 c-2 85 1 114 13 132 20 30 69 33 85 5z m1255 -5
c12 -18 15 -47 13 -132 l-3 -109 -52 77 c-55 80 -66 125 -43 169 16 28 65 25
85 -5z m-602 -220 c41 -17 88 -66 104 -108 16 -46 17 -350 1 -366 -32 -32 -38
-14 -38 106 0 124 -6 146 -36 140 -17 -3 -19 -15 -22 -131 l-3 -127 -74 0 -74
0 -3 127 c-3 116 -5 128 -22 131 -30 6 -36 -16 -36 -140 0 -90 -3 -118 -13
-118 -32 0 -37 23 -36 184 1 176 7 208 54 257 53 57 130 74 198 45z m-303
-271 l0 -25 -250 0 -250 0 0 25 0 25 250 0 250 0 0 -25z m970 0 l0 -25 -250 0
-250 0 0 25 0 25 250 0 250 0 0 -25z m-1282 -147 l-3 -63 -52 -3 -53 -3 0 65
0 66 55 0 56 0 -3 -62z m1202 -4 l0 -65 -52 3 -53 3 -3 63 -3 62 56 0 55 0 0
-66z"/>
</g>
</svg>
