<svg width="26" height="26" viewBox="0 0 26 26" fill="none" xmlns="http://www.w3.org/2000/svg">
<g clip-path="url(#clip0_156_1064)">
<path d="M0.117765 23.9098C-0.0392549 24.0668 -0.0392549 24.3222 0.117765 24.4793L1.5209 25.8824C1.67792 26.0394 1.93338 26.0394 2.0904 25.8824L3.3253 24.647L1.35317 22.6748L0.117765 23.9098Z" fill="#B32328"/>
<path d="M24.1753 1.82478C21.7425 -0.608107 17.7822 -0.608413 15.3491 1.82478C13.8588 3.3156 13.2811 5.37852 13.6171 7.31297L18.6872 12.3831C20.6216 12.7191 22.6845 12.1414 24.1754 10.6511C26.6084 8.21747 26.6084 4.25838 24.1753 1.82478Z" fill="#B32328"/>
<path d="M3.05057 19.1665L1.82995 20.4289C1.67853 20.586 1.68057 20.8388 1.83504 20.9933C1.9239 21.0822 4.91818 24.0765 5.00689 24.1652C5.16136 24.3197 5.41428 24.3222 5.57129 24.1703L6.83321 22.9491C6.435 22.5509 3.45586 19.5718 3.05057 19.1665Z" fill="#B32328"/>
<path d="M13.0108 8.86963C12.492 9.4064 12.919 8.96491 10.6787 11.2808L14.7194 15.3215C15.4174 14.6467 17.1068 13.0123 17.1305 12.9894C16.3696 12.2284 13.8686 9.72742 13.0108 8.86963Z" fill="#B32328"/>
<path d="M4.11426 18.0674L7.93263 21.8858C8.06493 21.7579 13.5477 16.4544 13.6196 16.3848L9.61468 12.3799L4.11426 18.0674ZM9.87014 17.2109L8.85196 18.2291C8.55383 18.5272 8.07064 18.5292 7.77052 18.2291C7.47172 17.9308 7.47172 17.4464 7.77052 17.1477L8.78869 16.1295C9.08749 15.8307 9.57135 15.8307 9.87014 16.1295C10.1689 16.4282 10.1689 16.9121 9.87014 17.2109Z" fill="#B32328"/>
</g>
<defs>
<clipPath id="clip0_156_1064">
<rect width="26" height="26" fill="white"/>
</clipPath>
</defs>
</svg>
