<svg width="26" height="26" viewBox="0 0 26 26" fill="none" xmlns="http://www.w3.org/2000/svg">
<path d="M19.1191 17.3166C14.485 17.3166 10.7148 13.5465 10.7148 8.91234C10.7148 7.93044 10.8846 6.98761 11.1957 6.11084H2.8013C1.25664 6.11084 0 7.36768 0 8.91234V17.0711C0 18.6159 1.25664 19.8726 2.8013 19.8726H23.1987C24.7434 19.8726 26 18.6159 26 17.0711V13.7322C24.4781 15.8981 21.9615 17.3166 19.1191 17.3166ZM8.92044 15.7932H4.84128C4.42055 15.7932 4.07956 15.4522 4.07956 15.0315C4.07956 14.6107 4.42055 14.2698 4.84128 14.2698H8.92044C9.34117 14.2698 9.68216 14.6107 9.68216 15.0315C9.68216 15.4522 9.34117 15.7932 8.92044 15.7932ZM8.92044 11.7136H4.84128C4.42055 11.7136 4.07956 11.3727 4.07956 10.9519C4.07956 10.5314 4.42055 10.1902 4.84128 10.1902H8.92044C9.34117 10.1902 9.68216 10.5314 9.68216 10.9519C9.68216 11.3727 9.34117 11.7136 8.92044 11.7136Z" fill="#B32328"/>
<path d="M19.1191 15.793C22.9133 15.793 26 12.7062 26 8.91211C26 5.118 22.9133 2.03125 19.1191 2.03125C15.325 2.03125 12.2383 5.118 12.2383 8.91211C12.2383 12.7062 15.325 15.793 19.1191 15.793ZM19.1191 5.70277C20.8887 5.70277 22.3285 7.1425 22.3285 8.91211C22.3285 10.6817 20.8887 12.1214 19.1191 12.1214C17.3493 12.1214 15.9098 10.6817 15.9098 8.91211C15.9098 7.1425 17.3493 5.70277 19.1191 5.70277Z" fill="#B32328"/>
<path d="M2.0459 21.3281C2.13814 22.7903 3.35629 23.9515 4.84125 23.9515C6.30299 23.9515 7.50627 22.8258 7.63124 21.3956H2.80127C2.54359 21.3956 2.29147 21.3716 2.0459 21.3281Z" fill="#B32328"/>
<path d="M18.3691 21.3956C18.4939 22.8258 19.6972 23.9515 21.1589 23.9515C22.6439 23.9515 23.862 22.7903 23.9543 21.3281C23.7087 21.3716 23.4566 21.3956 23.1989 21.3956H18.3691Z" fill="#B32328"/>
</svg>
