<svg width="26" height="26" viewBox="0 0 26 26" fill="none" xmlns="http://www.w3.org/2000/svg">
<path d="M19.3659 0H6.63477C5.37473 0 4.34961 1.02512 4.34961 2.28516V23.7148C4.34961 24.9749 5.37473 26 6.63477 26H19.3659C20.6259 26 21.651 24.9749 21.651 23.7148V2.28516C21.6511 1.02512 20.626 0 19.3659 0ZM13.0003 3.68387C14.3893 3.68387 15.5152 4.8098 15.5152 6.19871C15.5152 7.58763 14.3893 8.71355 13.0003 8.71355C11.6114 8.71355 10.4855 7.58763 10.4855 6.19871C10.4855 4.8098 11.6114 3.68387 13.0003 3.68387ZM13.0003 22.6223C9.689 22.6223 6.99506 19.9284 6.99506 16.6171C6.99506 13.3058 9.689 10.6118 13.0003 10.6118C16.3117 10.6118 19.0056 13.3058 19.0056 16.6171C19.0056 19.9284 16.3117 22.6223 13.0003 22.6223Z" fill="#B32328"/>
<path d="M13.0003 14.0835C11.6033 14.0835 10.4668 15.22 10.4668 16.617C10.4668 18.014 11.6033 19.1505 13.0003 19.1505C14.3973 19.1505 15.5339 18.014 15.5339 16.617C15.5339 15.22 14.3973 14.0835 13.0003 14.0835Z" fill="#B32328"/>
</svg>
