<svg width="26" height="26" viewBox="0 0 26 26" fill="none" xmlns="http://www.w3.org/2000/svg">
<g clip-path="url(#clip0_156_1070)">
<path d="M3.74512 5.34612L5.84208 17.035L11.927 10.9009L5.0864 4.00488L3.74512 5.34612Z" fill="#B32328"/>
<path d="M13.9561 11.0188L20.1529 17.0636L22.255 5.34612L20.9137 4.00488L13.9561 11.0188Z" fill="#B32328"/>
<path d="M12.883 12.1001L7.17969 17.8496H18.7773L12.883 12.1001Z" fill="#B32328"/>
<path d="M3.05957 19.373H22.9404V21.9248H3.05957V19.373Z" fill="#B32328"/>
<path d="M0 23.4482V25.2383C0 25.659 0.341047 26 0.761719 26H25.2383C25.659 26 26 25.659 26 25.2383V23.4482H0Z" fill="#B32328"/>
<path d="M5.08859 1.84793L3.46374 0.223133C3.32089 0.0802344 3.12716 0 2.92515 0C2.72309 0 2.52941 0.0802344 2.38657 0.223133L0.223133 2.38657C0.0802344 2.52941 0 2.72314 0 2.9252C0 3.12726 0.0802852 3.32099 0.223133 3.46379L1.84798 5.08859L5.08859 1.84793Z" fill="#B32328"/>
<path d="M24.1518 5.08859L25.7766 3.46379C25.9195 3.32094 25.9998 3.12721 25.9998 2.9252C25.9998 2.7232 25.9195 2.52941 25.7766 2.38662L23.6132 0.223133C23.4703 0.0802344 23.2766 0 23.0746 0C22.8726 0 22.6788 0.0802344 22.536 0.223133L20.9111 1.84793L24.1518 5.08859Z" fill="#B32328"/>
</g>
<defs>
<clipPath id="clip0_156_1070">
<rect width="26" height="26" fill="white"/>
</clipPath>
</defs>
</svg>
