<svg xmlns="http://www.w3.org/2000/svg" xmlns:xlink="http://www.w3.org/1999/xlink" width="32" height="32" viewBox="0 0 32 32">
  <defs>
    <clipPath id="clip-Icon_3">
      <rect width="32" height="32"/>
    </clipPath>
  </defs>
  <g id="Icon_3" data-name="Icon 3" clip-path="url(#clip-Icon_3)">
    <g id="Group" transform="translate(-7.513 -7.5)">
      <path id="Compound_Path" data-name="Compound Path" d="M35.8,33.3a3.665,3.665,0,1,0-4.717,0A5.328,5.328,0,0,0,28.1,38.089h1.358a3.971,3.971,0,0,1,3.5-3.971h.984A3.971,3.971,0,0,1,37.4,38.089h1.358A5.328,5.328,0,0,0,35.8,33.3ZM31.12,30.487A2.308,2.308,0,1,1,33.9,32.761h-.916a2.342,2.342,0,0,1-1.867-2.274Z" transform="translate(-11.618 -10.79)" fill="#4b4b4b" stroke="#4b4b4b" stroke-width="0.5"/>
      <path id="Compound_Path-2" data-name="Compound Path" d="M21.708,10.5a11.2,11.2,0,1,0,7.432,19.582l6.991,7.025a.7.7,0,0,0,.984-.984l-7.025-6.991A11.2,11.2,0,0,0,21.708,10.5ZM11.866,21.7A9.842,9.842,0,1,1,28.8,28.521l-.136.136-.1.17a9.842,9.842,0,0,1-16.7-7.127Z" transform="translate(0 0)" fill="#4b4b4b" stroke="#4b4b4b" stroke-width="0.5"/>
    </g>
  </g>
</svg>
