<svg xmlns="http://www.w3.org/2000/svg" xmlns:xlink="http://www.w3.org/1999/xlink" width="32" height="32" viewBox="0 0 32 32">
  <defs>
    <clipPath id="clip-Icon_2">
      <rect width="32" height="32"/>
    </clipPath>
  </defs>
  <g id="Icon_2" data-name="Icon 2" clip-path="url(#clip-Icon_2)">
    <g id="noun_manage_user_2190194" data-name="noun_manage user_2190194" transform="translate(3 8.877)">
      <g id="Livello_2" data-name="Livello 2" transform="translate(0 -7.877)">
        <g id="Livello_11" data-name="Livello 11">
          <g id="Livello_2-2" data-name="Livello 2">
            <g id="Livello_8" data-name="Livello 8">
              <path id="Path_462" data-name="Path 462" d="M23.531,13.9c3.239,0,5.851-3.816,5.851-6.972V5.851a5.851,5.851,0,1,0-11.7,0V6.926C17.683,10.083,20.292,13.9,23.531,13.9ZM19,5.851a4.535,4.535,0,0,1,9.067,0V6.926c0,2.543-2.094,5.653-4.535,5.653S19,9.469,19,6.926Z" transform="translate(-11.849 0)" fill="#4b4b4b" stroke="#4b4b4b" stroke-width="0.6"/>
              <path id="Path_463" data-name="Path 463" d="M25.677,52.274H24.555a5.168,5.168,0,0,0-.3-.726l.811-.795a.8.8,0,0,0,0-1.118l-1.187-1.187a.8.8,0,0,0-1.118,0l-.8.8a5.366,5.366,0,0,0-.736-.3V47.818a.788.788,0,0,0-.778-.788H18.737a9.9,9.9,0,0,0-5.34-1.56H9.971A9.984,9.984,0,0,0,0,55.437v.792a2.639,2.639,0,0,0,2.639,2.639h12.2l.495.495a.792.792,0,0,0,1.115,0l.8-.8a4.97,4.97,0,0,0,.722.3v1.128a.788.788,0,0,0,.788.788h1.685a.788.788,0,0,0,.788-.788V58.864a5.3,5.3,0,0,0,.722-.3l.8.8a.792.792,0,0,0,1.115,0l1.194-1.184a.8.8,0,0,0,0-1.118l-.8-.8a5.145,5.145,0,0,0,.287-.722H25.68a.788.788,0,0,0,.792-.788V53.063A.792.792,0,0,0,25.677,52.274ZM1.319,56.229v-.792a8.661,8.661,0,0,1,8.651-8.648H13.4a8.575,8.575,0,0,1,4.565,1.319v.834a5.749,5.749,0,0,0-.722.3l-.8-.8a.792.792,0,0,0-1.115,0L14.14,49.632a.8.8,0,0,0,0,1.118l.8.795a4.8,4.8,0,0,0-.3.726H13.523a.788.788,0,0,0-.788.788v1.679a.788.788,0,0,0,.788.8h1.128a5.129,5.129,0,0,0,.3.722l-.8.8a.788.788,0,0,0-.224.495H2.639a1.319,1.319,0,0,1-1.319-1.326ZM25.641,54.7H23.922l-.079.31a4.288,4.288,0,0,1-.458,1.1l-.165.274,1.217,1.22L23.3,58.739l-1.2-1.22-.274.165a4.443,4.443,0,0,1-1.1.458l-.307.082v1.718H18.8V58.231l-.33-.079a4.383,4.383,0,0,1-1.1-.462l-.274-.165-1.217,1.217L14.737,57.6l1.217-1.217-.165-.274a4.443,4.443,0,0,1-.458-1.1l-.073-.31H13.549V53.092h1.718l.079-.31a4.5,4.5,0,0,1,.458-1.1l.165-.274-1.217-1.217,1.138-1.135,1.217,1.21.274-.165a4.5,4.5,0,0,1,1.1-.458l.307-.079V47.855H20.4v1.718l.307.079a4.5,4.5,0,0,1,1.1.458l.284.152,1.217-1.217,1.138,1.138-1.22,1.207.165.274a4.374,4.374,0,0,1,.458,1.1l.079.31H25.65Z" transform="translate(0 -30.473)" fill="#4b4b4b" stroke="#4b4b4b" stroke-width="0.6"/>
              <path id="Path_464" data-name="Path 464" d="M54.873,64.28A2.23,2.23,0,1,0,57.1,66.5h0A2.23,2.23,0,0,0,54.873,64.28Zm0,3.628a1.405,1.405,0,1,1,1.4-1.412h0a1.405,1.405,0,0,1-1.4,1.412h0Z" transform="translate(-35.278 -43.079)" fill="#4b4b4b" stroke="#4b4b4b" stroke-width="0.6"/>
            </g>
          </g>
        </g>
      </g>
    </g>
  </g>
</svg>
