<svg width="26" height="26" viewBox="0 0 26 26" fill="none" xmlns="http://www.w3.org/2000/svg">
<g clip-path="url(#clip0_156_1103)">
<path d="M12.9948 18.3979C11.7522 18.3979 10.7412 19.4056 10.7412 20.6436C10.7412 21.8819 11.7522 22.89 12.9948 22.89C14.2379 22.89 15.2488 21.8819 15.2488 20.6436C15.2488 19.4056 14.2377 18.3979 12.9948 18.3979Z" fill="#B32328"/>
<path d="M18.4927 15.3383C17.0255 13.8719 15.0725 13.064 12.9942 13.064C10.9239 13.064 8.97626 13.8666 7.50946 15.3237C6.91704 15.9133 6.91602 16.8738 7.507 17.4643C7.79408 17.7518 8.17632 17.9097 8.58315 17.9097C8.98815 17.9097 9.36894 17.7527 9.65562 17.4676C10.5482 16.5805 11.7339 16.0919 12.9942 16.0919C14.2592 16.0919 15.4482 16.5836 16.3414 17.476C16.6285 17.7627 17.0105 17.921 17.4169 17.921C17.8223 17.921 18.2029 17.7639 18.4898 17.4789C19.0831 16.8893 19.0841 15.9293 18.4927 15.3383Z" fill="#B32328"/>
<path d="M25.5562 8.29824C22.2018 4.95212 17.7403 3.10986 12.9944 3.10986C8.25489 3.10986 3.79791 4.94781 0.44457 8.28598C-0.147848 8.87553 -0.148258 9.83603 0.44375 10.4266C0.730628 10.7127 1.11224 10.8699 1.51826 10.8699C1.92408 10.8699 2.30528 10.7133 2.59216 10.4274C5.37175 7.66076 9.0659 6.13675 12.9944 6.13675C16.9287 6.13675 20.6266 7.66383 23.4068 10.4379C23.6936 10.7241 24.0759 10.882 24.4817 10.882C24.8873 10.882 25.2685 10.7246 25.5552 10.4391C26.1478 9.8491 26.1484 8.88824 25.5562 8.29824Z" fill="#B32328"/>
<path d="M21.9354 11.9068C19.5477 9.52466 16.3725 8.21289 12.9948 8.21289C9.6232 8.21289 6.45277 9.52056 4.0671 11.8943C3.77981 12.18 3.62171 12.56 3.62109 12.9645C3.62109 13.3687 3.77858 13.7491 4.06546 14.0352C4.35234 14.3214 4.73416 14.4793 5.14018 14.4793C5.54558 14.4793 5.92679 14.3218 6.21408 14.0368C8.02639 12.2337 10.4346 11.2404 12.9948 11.2404C15.5603 11.2404 17.9718 12.2372 19.7853 14.0464C20.0726 14.3331 20.4543 14.491 20.8605 14.491C21.2661 14.491 21.6475 14.3335 21.934 14.0481C22.2208 13.7624 22.3794 13.3825 22.3796 12.9779C22.38 12.5733 22.2221 12.1933 21.9354 11.9068Z" fill="#B32328"/>
</g>
<defs>
<clipPath id="clip0_156_1103">
<rect width="26" height="26" fill="white"/>
</clipPath>
</defs>
</svg>
